<?xml version="1.0" encoding="UTF-8" standalone="no"?>
<!DOCTYPE svg PUBLIC "-//W3C//DTD SVG 1.1//EN" "http://www.w3.org/Graphics/SVG/1.1/DTD/svg11.dtd">
<svg width="100%" height="100%" viewBox="0 0 512 512" version="1.1" xmlns="http://www.w3.org/2000/svg" xmlns:xlink="http://www.w3.org/1999/xlink" xml:space="preserve" xmlns:serif="http://www.serif.com/" style="fill-rule:evenodd;clip-rule:evenodd;stroke-linejoin:round;stroke-miterlimit:2;">
    <g transform="matrix(1,0,0,1,-552,0)">
        <g transform="matrix(0.5,0,0,1,15,0)">
            <g id="Square-Icons" serif:id="Square Icons">
                <rect id="Gear" x="1074" y="0" width="1024" height="512" style="fill:none;"/>
                <g id="Gear1" serif:id="Gear">
                    <g transform="matrix(4.14328,0,0,2.07164,376.162,-619.188)">
                        <g id="Gear2" serif:id="Gear">
                            <path id="Gear3" serif:id="Gear" d="M301.097,529.793L295.005,539.542C294.358,540.577 293.22,541.208 292,541.208C290.78,541.208 289.642,540.577 288.995,539.542L282.903,529.793C281.928,529.71 280.955,529.614 279.983,529.505L272.106,537.879C271.436,538.59 270.502,538.994 269.525,538.994C268.056,538.994 266.732,538.08 266.212,536.706L262.139,525.956C261.199,525.685 260.262,525.401 259.33,525.104L249.971,531.78C249.371,532.208 248.651,532.438 247.914,532.438C246.19,532.438 244.703,531.18 244.419,529.48L242.522,518.142C241.653,517.692 240.79,517.231 239.933,516.758L229.452,521.48C228.994,521.686 228.498,521.792 227.997,521.792C226.053,521.792 224.453,520.193 224.453,518.249C224.453,518.213 224.454,518.177 224.455,518.141L224.806,506.65C224.041,506.04 223.285,505.419 222.537,504.789L211.336,507.375C211.075,507.435 210.807,507.465 210.539,507.465C208.595,507.465 206.996,505.866 206.996,503.922C206.996,503.654 207.026,503.386 207.087,503.125L209.673,491.924C209.042,491.176 208.421,490.42 207.811,489.655L196.32,490.006C196.284,490.007 196.248,490.008 196.212,490.008C194.268,490.008 192.669,488.408 192.669,486.465C192.669,485.963 192.775,485.467 192.981,485.009L197.703,474.528C197.23,473.671 196.769,472.809 196.32,471.94L184.981,470.042C183.281,469.758 182.023,468.271 182.023,466.548C182.023,465.81 182.253,465.09 182.681,464.49L189.357,455.131C189.061,454.199 188.777,453.263 188.505,452.323L177.755,448.25C176.381,447.729 175.467,446.406 175.467,444.936C175.467,443.959 175.871,443.025 176.583,442.355L184.956,434.479C184.847,433.506 184.751,432.533 184.668,431.558L174.919,425.466C173.884,424.819 173.254,423.682 173.254,422.461C173.254,421.241 173.884,420.103 174.919,419.456L184.668,413.364C184.751,412.39 184.847,411.416 184.956,410.444L176.583,402.567C175.871,401.898 175.467,400.963 175.467,399.986C175.467,398.517 176.381,397.193 177.755,396.673L188.505,392.6C188.777,391.66 189.061,390.724 189.357,389.791L182.681,380.432C182.253,379.832 182.023,379.112 182.023,378.375C182.023,376.651 183.281,375.165 184.981,374.88L196.32,372.983C196.769,372.114 197.23,371.251 197.703,370.395L192.981,359.913C192.775,359.456 192.669,358.959 192.669,358.458C192.669,356.514 194.268,354.914 196.212,354.914C196.248,354.914 196.284,354.915 196.32,354.916L207.811,355.267C208.421,354.503 209.042,353.746 209.673,352.999L207.087,341.797C207.026,341.536 206.996,341.268 206.996,341C206.996,339.056 208.595,337.457 210.539,337.457C210.807,337.457 211.075,337.487 211.336,337.548L222.537,340.134C223.285,339.503 224.041,338.882 224.806,338.272L224.455,326.781C224.454,326.745 224.453,326.709 224.453,326.673C224.453,324.729 226.053,323.13 227.997,323.13C228.498,323.13 228.994,323.236 229.452,323.443L239.933,328.164C240.79,327.691 241.653,327.23 242.522,326.781L244.419,315.442C244.703,313.742 246.19,312.484 247.914,312.484C248.651,312.484 249.371,312.714 249.971,313.143L259.33,319.818C260.262,319.522 261.199,319.238 262.139,318.967L266.212,308.216C266.732,306.842 268.056,305.928 269.525,305.928C270.502,305.928 271.436,306.332 272.106,307.044L279.983,315.417C280.955,315.308 281.928,315.212 282.903,315.129L288.995,305.38C289.642,304.345 290.78,303.715 292,303.715C293.22,303.715 294.358,304.345 295.005,305.38L301.097,315.129C302.072,315.212 303.045,315.308 304.017,315.417L311.894,307.044C312.564,306.332 313.498,305.928 314.475,305.928C315.944,305.928 317.268,306.842 317.788,308.216L321.861,318.967C322.801,319.238 323.738,319.522 324.67,319.818L334.029,313.143C334.629,312.714 335.349,312.484 336.086,312.484C337.81,312.484 339.297,313.742 339.581,315.442L341.478,326.781C342.347,327.23 343.21,327.691 344.067,328.164L354.548,323.443C355.006,323.236 355.502,323.13 356.003,323.13C357.947,323.13 359.547,324.729 359.547,326.673C359.547,326.709 359.546,326.745 359.545,326.781L359.194,338.272C359.959,338.882 360.715,339.503 361.463,340.134L372.664,337.548C372.925,337.487 373.193,337.457 373.461,337.457C375.405,337.457 377.004,339.056 377.004,341C377.004,341.268 376.974,341.536 376.913,341.797L374.327,352.999C374.958,353.746 375.579,354.503 376.189,355.267L387.68,354.916C387.716,354.915 387.752,354.914 387.788,354.914C389.732,354.914 391.331,356.514 391.331,358.458C391.331,358.959 391.225,359.456 391.019,359.913L386.297,370.395C386.77,371.251 387.231,372.114 387.68,372.983L399.019,374.88C400.719,375.165 401.977,376.651 401.977,378.375C401.977,379.112 401.747,379.832 401.319,380.432L394.643,389.791C394.939,390.724 395.223,391.66 395.495,392.6L406.245,396.673C407.619,397.193 408.533,398.517 408.533,399.986C408.533,400.963 408.129,401.898 407.417,402.567L399.044,410.444C399.153,411.416 399.249,412.39 399.332,413.364L409.081,419.456C410.116,420.103 410.746,421.241 410.746,422.461C410.746,423.682 410.116,424.819 409.081,425.466L399.332,431.558C399.249,432.533 399.153,433.506 399.044,434.479L407.417,442.355C408.129,443.025 408.533,443.959 408.533,444.936C408.533,446.406 407.619,447.729 406.245,448.25L395.495,452.323C395.223,453.263 394.939,454.199 394.643,455.131L401.319,464.49C401.747,465.09 401.977,465.81 401.977,466.548C401.977,468.271 400.719,469.758 399.019,470.042L387.68,471.94C387.231,472.809 386.77,473.671 386.297,474.528L391.019,485.009C391.225,485.467 391.331,485.963 391.331,486.465C391.331,488.408 389.732,490.008 387.788,490.008C387.752,490.008 387.716,490.007 387.68,490.006L376.189,489.655C375.579,490.42 374.958,491.176 374.327,491.924L376.913,503.125C376.974,503.386 377.004,503.654 377.004,503.922C377.004,505.866 375.405,507.465 373.461,507.465C373.193,507.465 372.925,507.435 372.664,507.375L361.463,504.789C360.715,505.419 359.959,506.04 359.194,506.65L359.545,518.141C359.546,518.177 359.547,518.213 359.547,518.249C359.547,520.193 357.947,521.792 356.003,521.792C355.502,521.792 355.006,521.686 354.548,521.48L344.067,516.758C343.21,517.231 342.347,517.692 341.478,518.142L339.581,529.48C339.297,531.18 337.81,532.438 336.086,532.438C335.349,532.438 334.629,532.208 334.029,531.78L324.67,525.104C323.738,525.401 322.801,525.685 321.861,525.956L317.788,536.706C317.268,538.08 315.944,538.994 314.475,538.994C313.498,538.994 312.564,538.59 311.894,537.879L304.017,529.505C303.045,529.614 302.072,529.71 301.097,529.793ZM329.665,504.98L332.656,486.093C333.204,482.637 336.498,480.244 339.954,480.791L358.841,483.782C376.609,464.415 385.11,438.252 382.12,412.14L365.081,403.458C361.963,401.869 360.705,397.997 362.293,394.88L370.975,377.841C358.046,354.958 335.79,338.788 310.032,333.563L296.51,347.085C295.314,348.281 293.691,348.953 292,348.953C290.309,348.953 288.686,348.281 287.49,347.085L273.968,333.563C248.21,338.788 225.954,354.958 213.025,377.841L221.707,394.88C223.295,397.997 222.037,401.869 218.919,403.458L201.88,412.14C198.89,438.252 207.391,464.415 225.159,483.782L244.046,480.791C247.502,480.244 250.796,482.637 251.344,486.093L254.335,504.98C278.245,515.894 305.755,515.894 329.665,504.98ZM245.769,495.846C245.769,495.844 245.769,495.842 245.769,495.84C245.769,491.953 242.57,488.754 238.683,488.754C234.795,488.754 231.596,491.953 231.596,495.84C231.596,495.842 231.596,495.844 231.596,495.846C231.599,499.731 234.797,502.927 238.683,502.927C242.568,502.927 245.766,499.731 245.769,495.846ZM352.404,495.846C352.404,495.844 352.404,495.842 352.404,495.84C352.404,491.953 349.205,488.754 345.317,488.754C341.43,488.754 338.231,491.953 338.231,495.84C338.231,495.842 338.231,495.844 338.231,495.846C338.234,499.731 341.432,502.927 345.317,502.927C349.203,502.927 352.401,499.731 352.404,495.846ZM212.818,394.431C212.818,390.543 209.619,387.344 205.731,387.344C201.843,387.344 198.644,390.543 198.644,394.431C198.644,398.318 201.843,401.517 205.731,401.517C209.619,401.517 212.818,398.318 212.818,394.431ZM385.356,394.431C385.356,390.543 382.157,387.344 378.269,387.344C374.381,387.344 371.182,390.543 371.182,394.431C371.182,398.318 374.381,401.517 378.269,401.517C382.157,401.517 385.356,398.318 385.356,394.431ZM299.087,331.753C299.087,327.865 295.888,324.666 292,324.666C288.112,324.666 284.913,327.865 284.913,331.753C284.913,335.64 288.112,338.839 292,338.839C295.888,338.839 299.087,335.64 299.087,331.753Z"/>
                        </g>
                    </g>
                </g>
            </g>
        </g>
    </g>
</svg>
