<?xml version="1.0" encoding="UTF-8" standalone="no"?>
<!-- Created by AtomCrusher for the English Wikipedia -->

<svg
   xmlns:dc="http://purl.org/dc/elements/1.1/"
   xmlns:cc="http://creativecommons.org/ns#"
   xmlns:rdf="http://www.w3.org/1999/02/22-rdf-syntax-ns#"
   xmlns:svg="http://www.w3.org/2000/svg"
   xmlns="http://www.w3.org/2000/svg"
   xmlns:sodipodi="http://sodipodi.sourceforge.net/DTD/sodipodi-0.dtd"
   xmlns:inkscape="http://www.inkscape.org/namespaces/inkscape"
   version="1.1"
   width="612"
   height="612"
   id="svg927"
   sodipodi:docname="rust_wasm4.svg"
   inkscape:version="0.92.2 (5c3e80d, 2017-08-06)">
  <metadata
     id="metadata933">
    <rdf:RDF>
      <cc:Work
         rdf:about="">
        <dc:format>image/svg+xml</dc:format>
        <dc:type
           rdf:resource="http://purl.org/dc/dcmitype/StillImage" />
        <dc:title></dc:title>
      </cc:Work>
    </rdf:RDF>
  </metadata>
  <defs
     id="defs931" />
  <sodipodi:namedview
     pagecolor="#ffffff"
     bordercolor="#666666"
     borderopacity="1"
     objecttolerance="10"
     gridtolerance="10"
     guidetolerance="10"
     inkscape:pageopacity="0"
     inkscape:pageshadow="2"
     inkscape:window-width="1920"
     inkscape:window-height="1015"
     id="namedview929"
     showgrid="true"
     inkscape:zoom="1.0907007"
     inkscape:cx="370.50931"
     inkscape:cy="343.34641"
     inkscape:window-x="0"
     inkscape:window-y="0"
     inkscape:window-maximized="1"
     inkscape:current-layer="g5267">
    <inkscape:grid
       type="xygrid"
       id="grid902" />
  </sodipodi:namedview>
  <!-- Block -->
  <!-- Letters -->
  <g
     id="g5267"
     transform="matrix(1.9409417,0,0,1.9409417,8.3471653,-581.72992)">
    <g
       id="g5257"
       transform="rotate(75.373848,151.31849,455.91523)"
       style="fill:#6055E7;fill-opacity:1">
      <g
         id="g5260"
         style="fill:#6055E7;fill-opacity:1">
        <path
           style="stroke-width:2.08974838;fill:#6055E7;fill-opacity:1"
           inkscape:connector-curvature="0"
           id="path4404"
           d="m 232.70988,331.61995 c -1.24452,-0.81487 -2.82336,-0.92908 -4.16615,-0.2983 l -13.29548,6.20855 c -1.07104,-0.58236 -2.15227,-1.14914 -3.23478,-1.69844 l -2.49027,-14.45154 c -0.25383,-1.46245 -1.24838,-2.69202 -2.62386,-3.24991 -1.38333,-0.55625 -2.94828,-0.36051 -4.14804,0.52343 l -11.7967,8.65835 c -1.17941,-0.36504 -2.35985,-0.70801 -3.5429,-1.04159 l -5.25496,-13.65658 c -0.532,-1.39007 -1.74866,-2.40609 -3.21231,-2.67901 -1.4582,-0.27611 -2.95952,0.22397 -3.96145,1.31886 l -9.89072,10.79911 c -1.22149,-0.12455 -2.44421,-0.2264 -3.66935,-0.3194 l -7.81986,-12.3844 c -0.7939,-1.25956 -2.18367,-2.0157 -3.66858,-1.99711 -1.48648,0.0107 -2.86563,0.79339 -3.63145,2.06666 l -7.60303,12.55069 c -1.20851,0.11469 -2.42022,0.24983 -3.6261,0.39684 L 124.96704,311.7237 c -1.0286,-1.0773 -2.53526,-1.54966 -3.98948,-1.24618 -1.46049,0.30266 -2.65441,1.33836 -3.16405,2.73863 l -5.00822,13.79595 c -1.16013,0.34662 -2.32085,0.70356 -3.47438,1.08161 L 97.341408,319.6336 c -1.214091,-0.84586 -2.785736,-1.02517 -4.154921,-0.44217 -1.368447,0.5767 -2.338217,1.82807 -2.566172,3.30082 l -2.217711,14.48151 c -1.080278,0.57194 -2.162614,1.15268 -3.235532,1.76 l -13.375826,-5.94792 c -1.358545,-0.60451 -2.931689,-0.46401 -4.161743,0.37297 -1.22924,0.84086 -1.933192,2.2585 -1.869712,3.74222 l 0.646373,14.61511 c -0.953378,0.77718 -1.899223,1.56293 -2.83426,2.36909 l -14.274718,-3.21899 c -1.448375,-0.32733 -2.964724,0.11655 -4.007869,1.18112 -1.041595,1.06216 -1.460591,2.5855 -1.10771,4.03137 l 3.494884,14.23605 c -0.772627,0.93626 -1.536246,1.89203 -2.285766,2.85019 l -14.668879,-0.37429 c -1.484554,-0.0388 -2.882891,0.69241 -3.699325,1.93932 -0.816425,1.2469 -0.9291,2.82338 -0.298311,4.16615 l 6.208567,13.29548 c -0.580098,1.07251 -1.146929,2.14886 -1.69621,3.23136 l -14.448133,2.49251 c -1.464844,0.25229 -2.694394,1.24684 -3.249894,2.62386 -0.558643,1.38179 -0.359878,2.95019 0.517756,4.14922 l 8.660581,11.79331 c -0.365033,1.17937 -0.70925,2.36393 -1.040385,3.54855 l -13.6543312,5.25153 c -1.3892528,0.53591 -2.4064375,1.74693 -2.6801696,3.20669 -0.2768559,1.46448 0.2245933,2.9682 1.3234242,3.96933 l 10.7967766,9.87939 c -0.127623,1.22625 -0.23102,2.44606 -0.321635,3.67277 l -12.3821633,7.81644 c -1.2595543,0.79388 -2.0148432,2.18232 -1.999343,3.67195 0.01394,1.49201 0.7965807,2.87114 2.0666643,3.63149 l 12.547252,7.60083 c 0.116396,1.21635 0.249832,2.4202 0.396839,3.62609 L 7.125113,482.26723 c -1.0781229,1.02468 -1.5448137,2.52526 -1.2382759,3.9849 0.2963413,1.45973 1.3371691,2.64873 2.7374437,3.15839 l 13.7937102,5.01163 c 0.344334,1.16879 0.711055,2.32424 1.090672,3.47544 l -8.465758,11.99069 c -0.860901,1.21102 -1.025857,2.78675 -0.444411,4.1583 0.578249,1.36608 1.829962,2.3331 3.301888,2.55712 l 14.475874,2.21886 c 0.571185,1.08658 1.155033,2.16418 1.75997,3.23553 l -5.938847,13.37689 c -0.606036,1.36091 -0.467117,2.93644 0.372964,4.16175 0.834601,1.22847 2.256254,1.9366 3.739979,1.87311 l 14.61736,-0.64979 c 0.777195,0.95338 1.562946,1.89922 2.36912,2.83427 l -3.216785,14.27129 c -0.327354,1.44838 0.113472,2.96948 1.181122,4.00788 1.059054,1.04635 2.582859,1.46234 4.027926,1.1055 l 14.241707,-3.49605 c 0.933167,0.77737 1.886061,1.5402 2.843525,2.29603 l -0.37431,14.66885 c -0.03814,1.47826 0.69477,2.88446 1.939311,3.69935 1.244532,0.81487 2.825951,0.92742 4.169584,0.30053 l 13.292064,-6.21079 c 1.075598,0.57539 2.15584,1.14366 3.241459,1.68821 l 2.486884,14.4493 c 0.250729,1.46721 1.243675,2.69914 2.623844,3.24989 1.380216,0.561 2.952574,0.36147 4.149221,-0.51777 l 11.791066,-8.65717 c 1.17938,0.36503 2.36393,0.7092 3.54854,1.04036 l 5.24932,13.65778 c 0.53509,1.3853 1.7492,2.40298 3.20892,2.67674 1.45899,0.28011 2.96359,-0.22274 3.96709,-1.32 l 9.88282,-10.79454 c 1.22149,0.12453 2.44732,0.22165 3.66936,0.31938 l 7.82209,12.381 c 0.7939,1.25955 2.17839,2.01862 3.66408,2.00393 1.48965,-0.0155 2.86395,-0.79597 3.63371,-2.07006 l 7.60868,-12.55188 c 1.20849,-0.11478 2.41162,-0.23894 3.61821,-0.39223 l 10.1091,10.63905 c 1.02703,1.07967 2.52956,1.55609 3.98608,1.24391 1.46048,-0.30267 2.64925,-1.33046 3.15732,-2.72838 l 5.01046,-13.79938 c 1.16405,-0.34745 2.32455,-0.70408 3.47885,-1.08843 l 11.98728,8.46351 c 1.20476,0.86008 2.78415,1.02758 4.15492,0.44217 1.37152,-0.58144 2.3411,-1.82957 2.56274,-3.30306 l 2.21662,-14.47244 c 1.08578,-0.57513 2.16382,-1.15678 3.23436,-1.76562 l 13.37581,5.94793 c 1.35936,0.60838 2.93472,0.46455 4.16396,-0.3764 1.22617,-0.83616 1.93758,-2.24737 1.87092,-3.73654 l -0.64979,-14.61738 c 0.951,-0.77875 1.89906,-1.56791 2.83649,-2.37252 l 14.27247,3.22243 c 1.45231,0.32652 2.97173,-0.1169 4.01014,-1.18454 1.04632,-1.05906 1.45886,-2.58514 1.102,-4.0302 l -3.48924,-14.23724 c 0.77019,-0.93784 1.53504,-1.88792 2.28697,-2.84455 l 14.66545,0.37206 c 1.48302,0.0413 2.88444,-0.69477 3.69931,-1.93932 0.81488,-1.24453 0.93098,-2.81875 0.30172,-4.16393 l -6.20513,-13.29323 c 0.57764,-1.07412 1.14337,-2.15607 1.69503,-3.23699 l 14.44248,-2.49132 c 1.46875,-0.25313 2.70137,-1.24716 3.25213,-2.62729 0.56101,-1.38026 0.36153,-2.94763 -0.52,-4.14582 l -8.65493,-11.79448 c 0.36271,-1.18093 0.70454,-2.36211 1.03809,-3.54513 l 13.65434,-5.25154 c 1.39008,-0.532 2.4032,-1.74718 2.6824,-3.21009 0.27612,-1.45821 -0.22651,-2.95782 -1.32223,-3.9637 l -10.80018,-9.88163 c 0.13001,-1.22472 0.23055,-2.44828 0.3228,-3.66714 l 12.38323,-7.8255 c 1.26347,-0.79472 2.02137,-2.18485 2.00275,-3.66974 -0.0131,-1.48805 -0.78625,-2.86099 -2.06665,-3.63148 l -12.55187,-7.60868 c -0.11479,-1.20847 -0.2454,-2.41434 -0.39788,-3.61702 l 10.64247,-10.10687 c 1.07967,-1.02701 1.55502,-2.53321 1.24834,-3.99292 -0.30102,-1.45261 -1.33717,-2.64872 -2.73744,-3.15837 l -13.79256,-5.00599 c -0.34504,-1.16251 -0.70574,-2.32714 -1.08618,-3.48227 l 8.46352,-11.98725 c 0.86094,-1.21101 1.02672,-2.78812 0.44217,-4.15491 -0.58383,-1.37311 -1.82707,-2.33757 -3.29743,-2.56395 l -14.47807,-2.21544 c -0.57669,-1.08341 -1.15744,-2.16576 -1.76,-3.23554 l 5.94675,-13.38148 c 0.60294,-1.35616 0.45993,-2.93288 -0.37862,-4.16057 -0.8346,-1.2285 -2.25129,-1.93675 -3.73658,-1.87089 l -14.62194,0.64191 c -0.7748,-0.95183 -1.56177,-1.89356 -2.36794,-2.82861 l 3.21903,-14.27473 c 0.3305,-1.45309 -0.11434,-2.96815 -1.17889,-4.01128 -1.06372,-1.03921 -2.58596,-1.45763 -4.02794,-1.10549 l -14.24171,3.49605 c -0.93625,-0.77265 -1.88706,-1.53637 -2.84678,-2.28354 l 0.37427,-14.66887 c 0.0389,-1.48455 -0.69476,-2.88445 -1.9393,-3.69934 z m -14.61951,21.83621 c 1.85972,1.28043 3.23021,3.27156 3.67407,5.66947 0.87835,4.79975 -2.29154,9.40517 -7.08968,10.29136 -4.79257,0.89326 -9.39191,-2.27459 -10.27657,-7.07506 -0.87906,-4.7935 2.29235,-9.40126 7.08971,-10.29139 2.39626,-0.44664 4.74273,0.12519 6.60247,1.40562 z m 8.99453,23.27184 c 23.40213,22.41146 35.22146,52.64353 33.76333,84.67522 l -22.14191,14.33983 c -3.73188,2.41909 -4.80358,7.40394 -2.39712,11.13436 l 12.44346,18.70485 c -16.49517,31.39094 -44.99911,50.31476 -73.46219,56.03863 l -13.75578,-13.95856 c -3.12615,-3.15992 -8.22094,-3.18727 -11.38551,-0.054 L 135.0001,562.78005 C 120.16854,560.48324 105.71041,554.74502 92.338746,545.9897 78.660651,537.03379 67.757023,525.37915 59.661692,512.34869 l 7.527809,-19.58128 c 1.603399,-4.1487 -0.45421,-8.80491 -4.599719,-10.40282 l -17.047629,-6.56163 c -5.230465,-35.1455 2.114106,-62.9474 22.808764,-89.30708 l 20.051374,3.02976 c 4.383873,0.71563 8.523276,-2.26056 9.243592,-6.65156 l 0.198231,-1.21181 0.0917,0.143 c 1.966632,-12.74575 2.951606,-18.85408 3.517406,-22.25591 24.92054,-12.80908 56.18882,-18.57748 91.98048,-4.66046 l 3.5973,19.2259 c 0.80788,4.37362 5.00087,7.26156 9.37365,6.44975 z M 90.087767,371.23255 c -0.812561,5.18522 -5.451165,8.17622 -10.258387,7.38699 -4.810404,-0.78455 -8.06641,-5.32355 -7.274828,-10.13954 0.791592,-4.81597 6.040201,-8.03988 10.140459,-7.29862 4.100249,0.74127 7.852458,4.07593 7.392756,10.05117 z M 262.11435,478.26826 c 0.94721,0.64518 1.78501,1.48489 2.44567,2.50874 2.64412,4.09303 1.46458,9.56628 -2.63158,12.21519 -4.09527,2.6528 -9.55535,1.47999 -12.2003,-2.61697 -2.63942,-4.08993 -1.46192,-9.55775 2.63496,-12.21295 3.07034,-1.98782 6.908,-1.82692 9.75125,0.10599 z M 51.301835,488.34594 c 3.452818,2.21762 4.993856,6.62599 3.454636,10.60928 -1.759935,4.54843 -6.873822,6.82062 -11.416662,5.06772 -4.548341,-1.7497 -6.808583,-6.8572 -5.051822,-11.41113 1.766155,-4.55791 6.869385,-6.82647 11.417716,-5.07678 0.568014,0.21953 1.103003,0.49389 1.596078,0.81099 z m 109.260665,72.0521 c 0.48639,0.32683 0.95057,0.70308 1.37815,1.13641 3.42709,3.46214 3.39112,9.06259 -0.0765,12.49284 -3.46763,3.4303 -9.06459,3.40107 -12.48931,-0.0595 -3.42244,-3.46924 -3.38109,-9.05557 0.0912,-12.49299 3.03344,-3.00493 7.68802,-3.35856 11.09653,-1.07682 z" />
      </g>
    </g>
    <path
       id="path4596"
       style="opacity:1;fill:none;fill-rule:evenodd;stroke:#6055E7;stroke-width:25;stroke-linecap:butt;stroke-linejoin:round;stroke-miterlimit:4;stroke-dasharray:none;stroke-opacity:1"
       d="m 161.87632,470.52094 h 56.42817 M 39.74611,414.09277 h 28.083244 l 28.214074,84.64227 18.809412,-56.42817 h 18.80938 l 18.8094,56.42817 28.21407,-84.64227 h 18.8094 l 28.21409,84.64227 h 18.8094"
       inkscape:connector-curvature="0"
       sodipodi:nodetypes="cccccccccccc" />
  </g>
</svg>
