<?xml version="1.0" encoding="UTF-8" standalone="no"?>
<svg
   xmlns:dc="http://purl.org/dc/elements/1.1/"
   xmlns:cc="http://creativecommons.org/ns#"
   xmlns:rdf="http://www.w3.org/1999/02/22-rdf-syntax-ns#"
   xmlns:svg="http://www.w3.org/2000/svg"
   xmlns="http://www.w3.org/2000/svg"
   id="svg8"
   version="1.1"
   viewBox="0 0 226.14467 226.14465"
   height="854.71997"
   width="854.71997">
  <defs
     id="defs2">
    <clipPath
       id="clipPath4725"
       clipPathUnits="userSpaceOnUse">
      <path
         id="path4723"
         d="M 0,1194.972 H 1240.372 V 0 H 0 Z" />
    </clipPath>
    <clipPath
       id="clipPath851"
       clipPathUnits="userSpaceOnUse">
      <path
         id="path849"
         d="M 0,597.154 C 0,267.943 266.878,1.066 596.088,1.066 v 0 c 329.21,0 596.088,266.877 596.088,596.088 v 0 c 0,329.211 -266.878,596.088 -596.088,596.088 v 0 C 266.878,1193.242 0,926.365 0,597.154 m 395.733,0 c 0,110.653 89.702,200.355 200.355,200.355 v 0 c 110.653,0 200.355,-89.702 200.355,-200.355 v 0 c 0,-110.653 -89.702,-200.355 -200.355,-200.355 v 0 c -110.653,0 -200.355,89.702 -200.355,200.355" />
    </clipPath>
  </defs>
  <metadata
     id="metadata5">
    <rdf:RDF>
      <cc:Work
         rdf:about="">
        <dc:format>image/svg+xml</dc:format>
        <dc:type
           rdf:resource="http://purl.org/dc/dcmitype/StillImage" />
        <dc:title></dc:title>
        <cc:license
           rdf:resource="" />
      </cc:Work>
    </rdf:RDF>
  </metadata>
  <g
     transform="translate(176.48565,24.741833)"
     id="layer1">
    <g
       clip-path="url(#clipPath4725)"
       id="g4721"
       transform="matrix(0.35277777,0,0,-0.35277777,-275.2781,298.99326)">
      <g
         transform="translate(704.5724,561.2426)"
         id="g4727">
        <path
           id="path4729"
           style="fill:#a42321;fill-opacity:1;fill-rule:nonzero;stroke:none"
           d="m 0,0 -3.324,6.886 c 0.017,0.26 0.031,0.522 0.031,0.785 0,7.805 -8.117,14.997 -21.77,20.757 v -4.789 c -1.332,0.528 -2.718,1.043 -4.163,1.54 v 2.232 c -19.513,7.037 -48.563,11.503 -81.013,11.503 -28.351,0 -54.11,-3.409 -73.18,-8.963 v -7.777 0 9.413 c -19.538,-6.209 -31.651,-14.834 -31.651,-24.371 0,-1.503 0.303,-2.984 0.886,-4.437 l -1.99,-3.543 c 0,0 -1.595,-2.067 1.213,-6.431 2.476,-3.849 14.881,-18.911 21.428,-26.799 2.812,-4.044 4.72,-6.535 4.886,-6.294 0.263,0.381 -1.749,7.974 -7.333,16.636 -2.606,4.652 -5.719,10.816 -7.587,15.369 5.215,-3.302 35.856,-18.731 98.357,-18.668 63.875,0.063 92.267,20.057 95.383,22.78 -1.089,-4.375 -4.809,-13.225 -7.777,-19.449 -4.875,-8.901 -6.641,-16.651 -6.414,-17.034 0.144,-0.242 1.808,2.324 4.261,6.481 5.708,8.135 16.525,23.662 18.686,27.617 C 1.378,-2.072 0,0 0,0" />
      </g>
      <g
         transform="translate(723.8693,561.2816)"
         id="g4731">
        <path
           id="path4733"
           style="fill:#f03c1f;fill-opacity:1;fill-rule:nonzero;stroke:none"
           d="m 0,0 -21.846,16.092 c -0.205,0.716 -0.41,1.431 -0.622,2.142 l 7.176,10.395 c 0.732,1.058 0.88,2.432 0.404,3.638 -0.476,1.199 -1.518,2.059 -2.751,2.27 l -12.132,2.06 c -0.471,0.959 -0.963,1.903 -1.458,2.841 l 5.098,11.669 c 0.524,1.19 0.414,2.572 -0.281,3.65 -0.693,1.084 -1.869,1.718 -3.122,1.668 l -12.314,-0.447 c -0.637,0.83 -1.285,1.653 -1.945,2.46 l 2.829,12.509 c 0.287,1.27 -0.075,2.6 -0.96,3.523 -0.88,0.919 -2.158,1.3 -3.373,1.002 l -11.995,-2.949 c -0.776,0.686 -1.565,1.364 -2.364,2.028 l 0.431,12.842 c 0.047,1.299 -0.559,2.535 -1.6,3.256 -1.04,0.726 -2.36,0.835 -3.497,0.296 l -11.189,-5.32 c -0.901,0.518 -1.807,1.029 -2.723,1.525 l -1.977,12.655 c -0.201,1.281 -1.025,2.371 -2.181,2.868 -1.152,0.5 -2.471,0.338 -3.482,-0.423 l -9.976,-7.485 c -0.983,0.327 -1.969,0.639 -2.967,0.938 l -4.301,12 c -0.437,1.224 -1.445,2.122 -2.674,2.375 -1.226,0.25 -2.486,-0.175 -3.335,-1.124 l -8.398,-9.393 c -1.015,0.116 -2.031,0.222 -3.05,0.311 l -6.483,10.924 c -0.657,1.106 -1.817,1.779 -3.067,1.779 -1.247,0 -2.409,-0.673 -3.062,-1.779 l -6.485,-10.924 c -1.019,-0.089 -2.039,-0.195 -3.053,-0.311 l -8.397,9.393 c -0.851,0.949 -2.116,1.374 -3.337,1.124 -1.228,-0.257 -2.238,-1.151 -2.673,-2.375 l -4.304,-12 c -0.996,-0.299 -1.983,-0.614 -2.967,-0.938 l -9.972,7.485 c -1.015,0.764 -2.335,0.925 -3.489,0.423 -1.151,-0.497 -1.979,-1.587 -2.178,-2.868 l -1.979,-12.655 c -0.915,-0.496 -1.821,-1.004 -2.724,-1.525 l -11.188,5.32 c -1.136,0.541 -2.463,0.43 -3.498,-0.296 -1.039,-0.721 -1.646,-1.957 -1.599,-3.256 l 0.43,-12.842 c -0.797,-0.664 -1.585,-1.342 -2.366,-2.028 l -11.992,2.949 c -1.217,0.296 -2.495,-0.083 -3.376,-1.002 -0.887,-0.923 -1.247,-2.253 -0.961,-3.523 l 2.824,-12.509 c -0.655,-0.811 -1.303,-1.63 -1.939,-2.46 l -12.314,0.447 c -1.243,0.037 -2.429,-0.584 -3.123,-1.668 -0.696,-1.078 -0.801,-2.46 -0.283,-3.65 l 5.101,-11.669 c -0.495,-0.938 -0.988,-1.882 -1.462,-2.841 l -12.132,-2.06 c -1.233,-0.208 -2.272,-1.067 -2.752,-2.27 -0.475,-1.206 -0.321,-2.58 0.406,-3.638 l 7.177,-10.395 c -0.055,-0.183 -0.106,-0.369 -0.162,-0.553 l -20.29,-21.554 c 0,0 -3.11,-2.437 1.417,-8.164 3.992,-5.053 24.491,-25.082 35.317,-35.574 4.572,-5.328 7.705,-8.626 8.031,-8.341 0.517,0.453 -2.194,10.144 -11.2,21.516 -6.943,10.204 -15.953,25.895 -13.84,27.704 0,0 2.403,3.05 7.225,5.247 0.176,-0.141 -0.183,0.139 0,0 0,0 101.76,-46.942 196.153,-0.794 10.783,1.934 17.311,-3.842 17.311,-3.842 2.251,-1.306 -3.578,-17.441 -8.372,-28.122 -6.52,-12.128 -7.476,-21.592 -6.923,-21.92 0.349,-0.209 2.721,3.401 6.104,9.145 C -18.671,-35.384 -2.889,-13.206 0,-7.819 3.275,-1.712 0,0 0,0" />
      </g>
      <g
         transform="translate(679.3791,567.3041)"
         id="g4735">
        <path
           id="path4737"
           style="fill:#f03c1f;fill-opacity:1;fill-rule:nonzero;stroke:none"
           d="m 0,0 c 0,0 14.642,0.679 33.874,20.227 l 2.725,6.051 c 0,0 -29.85,29.694 16.553,50.19 0,0 -4.063,-6.639 -2.871,-32.288 0,0 13.991,4.859 18.093,27.516 0,0 20.408,-26.906 -22.165,-52.141 0,0 -19.972,-32.018 -48.128,-28.951 z" />
      </g>
      <g
         transform="translate(613.0519,585.7445)"
         id="g4739">
        <path
           id="path4741"
           style="fill:#100f0d;fill-opacity:1;fill-rule:nonzero;stroke:none"
           d="m 0,0 c 0,0 10.169,11.135 20.339,0 0,0 7.991,-14.848 0,-22.271 0,0 -13.075,-10.393 -20.339,0 0,0 -8.716,8.167 0,22.271" />
      </g>
      <g
         transform="translate(624.8264,581.6136)"
         id="g4743">
        <path
           id="path4745"
           style="fill:#ffffff;fill-opacity:1;fill-rule:nonzero;stroke:none"
           d="m 0,0 c 0,-4.335 -2.556,-7.851 -5.708,-7.851 -3.152,0 -5.708,3.516 -5.708,7.851 0,4.336 2.556,7.852 5.708,7.852 C -2.556,7.852 0,4.336 0,0" />
      </g>
      <g
         transform="translate(567.6642,588.7845)"
         id="g4747">
        <path
           id="path4749"
           style="fill:#100f0d;fill-opacity:1;fill-rule:nonzero;stroke:none"
           d="m 0,0 c 0,0 17.443,7.724 22.205,-9.516 0,0 4.987,-20.093 -14.326,-21.227 0,0 -24.626,4.743 -7.879,30.743" />
      </g>
      <g
         transform="translate(576.425,581.3295)"
         id="g4751">
        <path
           id="path4753"
           style="fill:#ffffff;fill-opacity:1;fill-rule:nonzero;stroke:none"
           d="m 0,0 c 0,-4.472 -2.635,-8.098 -5.887,-8.098 -3.25,0 -5.886,3.626 -5.886,8.098 0,4.472 2.636,8.098 5.886,8.098 C -2.635,8.098 0,4.472 0,0" />
      </g>
      <g
         transform="translate(590.0124,551.016)"
         id="g4755">
        <path
           id="path4757"
           style="fill:#100f0d;fill-opacity:1;fill-rule:nonzero;stroke:none"
           d="m 0,0 22.246,1.785 c 0,0 -0.754,-3.581 -3.657,-6.268 0,0 -7.651,-8.39 -16.429,0.697 0,0 -1.437,1.55 -2.16,3.786" />
      </g>
      <g
         transform="translate(500.9372,571.6068)"
         id="g4759">
        <path
           id="path4761"
           style="fill:#f03c1f;fill-opacity:1;fill-rule:nonzero;stroke:none"
           d="m 0,0 c -0.184,0 -0.364,-0.014 -0.543,-0.028 -7.223,1.644 -27.526,6.934 -32.892,15.518 0,0 27.32,31.077 -15.38,50.942 l 4.972,-34.383 c 0,0 -13.163,8.797 -16.004,27.903 0,0 -32.055,-23.264 14.147,-45.559 0,0 4.191,-15.746 44.425,-28.308 l 0.029,0.119 c 0.405,-0.074 0.82,-0.119 1.246,-0.119 3.802,0 6.884,3.114 6.884,6.958 C 6.884,-3.115 3.802,0 0,0" />
      </g>
      <g
         transform="translate(554.0129,684.5033)"
         id="g4763">
        <path
           id="path4765"
           style="fill:#5bbaec;fill-opacity:1;fill-rule:nonzero;stroke:none"
           d="m 0,0 c 9.568,1.429 18.797,4.146 27.909,7.283 -0.967,3.553 1.435,8.193 3.304,10.981 2.383,3.545 5.896,6.046 9.884,7.459 6.144,2.178 17.136,-0.027 20.54,-6.445 18.14,5.689 38.055,8.911 56.563,3.061 17.339,-5.483 29.495,-20.63 26.415,-39.237 -0.305,-1.839 -0.799,-3.646 -1.47,-5.385 -4.117,-10.78 -14.717,-19.227 -26.22,-20.3 0.062,-0.434 -3.136,-2.501 -3.449,-3.247 -0.598,-1.408 -1.051,-3.531 -2.207,-4.658 l -1.931,0.917 c -20.104,3.257 -40.232,6.371 -60.307,9.809 -18.64,3.19 -59.151,12.771 -58.887,13.739 l -1.328,0.36 c -6.502,2.139 -9.964,8.979 -7.656,15.746 C -16.209,-2.196 -6.888,-1.024 0,0" />
      </g>
      <g
         transform="translate(736.5866,461.1273)"
         id="g4767">
        <path
           id="path4769"
           style="fill:#ea2930;fill-opacity:1;fill-rule:nonzero;stroke:none"
           d="m 0,0 c -36.333,-36.332 -84.641,-56.342 -136.025,-56.342 -51.384,0 -99.691,20.01 -136.024,56.342 -75.006,75.006 -75.006,197.047 0,272.053 36.333,36.333 84.64,56.342 136.024,56.342 51.384,0 99.692,-20.009 136.025,-56.342 C 36.333,235.719 56.343,187.41 56.343,136.026 56.343,84.644 36.333,36.335 0,0 m 157.367,179.757 h -16.959 c -9.07,58.132 -36.168,111.741 -78.565,154.138 -43.418,43.418 -97.674,69.538 -154.138,78.4 v 17.124 c 0,14.982 -12.146,27.128 -27.129,27.128 h -33.202 c -14.983,0 -27.129,-12.146 -27.129,-27.128 v -17.124 c -56.464,-8.862 -110.72,-34.982 -154.138,-78.4 -43.418,-43.418 -69.538,-97.673 -78.399,-154.138 h -17.125 c -14.982,0 -27.128,-12.147 -27.128,-27.129 v -33.202 c 0,-14.983 12.146,-27.129 27.128,-27.129 h 17.124 c 8.862,-56.465 34.982,-110.721 78.4,-154.138 43.418,-43.419 97.674,-69.539 154.138,-78.4 v -17.124 c 0,-14.983 12.146,-27.128 27.129,-27.128 h 33.202 c 14.983,0 27.129,12.145 27.129,27.128 v 17.124 c 56.464,8.861 110.72,34.981 154.138,78.4 42.397,42.397 69.495,96.006 78.565,154.138 h 16.959 c 14.983,0 27.128,12.146 27.128,27.129 v 33.202 c 0,14.982 -12.145,27.129 -27.128,27.129" />
      </g>
      <g
         transform="translate(496.1559,812.4349)"
         id="g4771">
        <path
           id="path4773"
           style="fill:#ffffff;fill-opacity:1;fill-rule:nonzero;stroke:none"
           d="m 0,0 8.001,3.766 c 1.448,0.681 2.434,1.75 2.958,3.208 0.524,1.456 0.447,2.908 -0.235,4.356 -0.682,1.448 -1.751,2.434 -3.208,2.959 -1.457,0.524 -2.909,0.445 -4.357,-0.236 l -8.001,-3.766 z m 28.577,-10.286 -0.303,-0.84 -5.714,-2.69 -0.841,0.302 -11.902,10.455 -6.858,-3.228 6.16,-13.087 -0.276,-0.898 -5.715,-2.69 -0.84,0.303 -16.678,35.433 0.303,0.841 L 0.2,20.34 c 1.562,0.735 3.182,1.124 4.86,1.17 1.677,0.045 3.273,-0.205 4.786,-0.749 1.513,-0.545 2.901,-1.369 4.165,-2.473 1.264,-1.104 2.264,-2.437 2.999,-3.999 1.076,-2.286 1.515,-4.604 1.319,-6.954 C 18.132,4.984 17.211,2.888 15.565,1.043 L 28.039,-9.143 Z" />
      </g>
      <g
         transform="translate(539.1193,805.851)"
         id="g4775">
        <path
           id="path4777"
           style="fill:#ffffff;fill-opacity:1;fill-rule:nonzero;stroke:none"
           d="m 0,0 c -1.376,-0.395 -2.724,-0.507 -4.043,-0.337 -1.319,0.169 -2.538,0.565 -3.658,1.187 -1.12,0.62 -2.101,1.444 -2.943,2.474 -0.843,1.029 -1.46,2.232 -1.855,3.608 l -5.394,18.824 0.434,0.781 6.072,1.739 0.781,-0.432 L -5.212,9.02 C -4.945,8.088 -4.481,7.422 -3.818,7.021 -3.156,6.619 -2.501,6.512 -1.853,6.697 L 1.123,7.55 c 0.444,0.127 0.888,0.375 1.331,0.742 0.442,0.367 0.815,0.825 1.118,1.372 0.303,0.547 0.502,1.151 0.597,1.814 0.095,0.662 0.033,1.377 -0.188,2.147 l -4.872,17.002 0.433,0.781 6.073,1.74 L 6.396,32.715 14.399,4.783 13.966,4.002 12.751,3.654 9.514,5.552 C 8.774,4.463 7.895,3.521 6.874,2.726 5.854,1.929 4.574,1.311 3.036,0.87 Z" />
      </g>
      <g
         transform="translate(569.2258,843.2445)"
         id="g4779">
        <path
           id="path4781"
           style="fill:#ffffff;fill-opacity:1;fill-rule:nonzero;stroke:none"
           d="m 0,0 c 1.251,0.174 2.591,0.094 4.019,-0.239 1.427,-0.334 2.498,-0.77 3.21,-1.309 l 2.85,-2.155 0.174,-1.251 -3.32,-3.65 -1.251,-0.173 c -0.191,0.143 -0.42,0.335 -0.686,0.574 -0.267,0.239 -0.597,0.47 -0.989,0.692 -0.392,0.222 -0.843,0.404 -1.351,0.546 -0.509,0.142 -1.075,0.17 -1.701,0.083 l -4.38,-0.607 c -0.626,-0.087 -1.063,-0.382 -1.312,-0.884 -0.249,-0.503 -0.351,-0.921 -0.305,-1.254 0.116,-0.835 0.584,-1.376 1.405,-1.623 0.821,-0.247 1.832,-0.415 3.035,-0.503 1.203,-0.089 2.489,-0.165 3.858,-0.23 1.369,-0.065 2.685,-0.351 3.946,-0.856 1.259,-0.506 2.358,-1.299 3.295,-2.381 0.936,-1.081 1.549,-2.665 1.839,-4.751 0.347,-2.502 -0.146,-4.697 -1.479,-6.582 -1.332,-1.885 -3.563,-3.045 -6.691,-3.478 l -5.005,-0.695 c -1.251,-0.173 -2.592,-0.094 -4.019,0.24 -1.428,0.333 -2.498,0.769 -3.211,1.308 l -2.849,2.156 -0.174,1.251 3.32,3.649 1.251,0.174 c 0.189,-0.145 0.418,-0.336 0.686,-0.575 0.266,-0.24 0.596,-0.47 0.988,-0.692 0.392,-0.222 0.843,-0.404 1.352,-0.546 0.508,-0.142 1.076,-0.17 1.701,-0.083 l 5.005,0.695 c 0.626,0.087 1.063,0.38 1.312,0.883 0.25,0.502 0.352,0.92 0.305,1.254 -0.116,0.834 -0.584,1.375 -1.405,1.622 -0.821,0.247 -1.833,0.416 -3.035,0.504 -1.203,0.088 -2.489,0.165 -3.858,0.231 -1.37,0.064 -2.685,0.349 -3.945,0.855 -1.261,0.505 -2.359,1.299 -3.295,2.381 -0.938,1.081 -1.55,2.664 -1.839,4.75 -0.347,2.503 0.134,4.695 1.446,6.578 1.312,1.882 3.533,3.041 6.661,3.475 z" />
      </g>
      <g
         transform="translate(585.8605,844.3363)"
         id="g4783">
        <path
           id="path4785"
           style="fill:#ffffff;fill-opacity:1;fill-rule:nonzero;stroke:none"
           d="m 0,0 0.614,0.648 3.789,0.102 -0.221,8.209 3.737,1.996 3.158,0.085 0.648,-0.614 0.255,-9.472 3.789,0.103 0.648,-0.616 0.153,-5.682 -0.614,-0.649 -3.789,-0.101 0.612,-22.732 -0.614,-0.648 -6.314,-0.17 -0.649,0.614 L 4.59,-6.195 0.738,-6.299 0.153,-5.683 Z" />
      </g>
      <g
         transform="translate(609.4182,815.725)"
         id="g4787">
        <path
           id="path4789"
           style="fill:#ffffff;fill-opacity:1;fill-rule:nonzero;stroke:none"
           d="m 0,0 3.783,38.979 0.689,0.568 25.148,-2.441 0.568,-0.689 -0.549,-5.658 -0.69,-0.569 -18.232,1.77 -0.915,-9.431 15.717,-1.525 0.568,-0.69 -0.549,-5.658 -0.69,-0.567 L 9.13,15.614 7.544,-0.732 6.854,-1.3 0.567,-0.689 Z" />
      </g>
      <g
         transform="translate(652.7707,832.4554)"
         id="g4791">
        <path
           id="path4793"
           style="fill:#ffffff;fill-opacity:1;fill-rule:nonzero;stroke:none"
           d="m 0,0 c -0.943,0.224 -1.756,0.124 -2.44,-0.298 -0.684,-0.423 -1.138,-1.105 -1.361,-2.047 l -0.437,-1.844 9.834,-2.33 0.437,1.844 c 0.223,0.943 0.124,1.756 -0.298,2.44 -0.423,0.684 -1.105,1.138 -2.047,1.361 z m -6.002,-22.596 c -1.394,0.33 -2.624,0.892 -3.69,1.686 -1.068,0.793 -1.937,1.734 -2.609,2.825 -0.673,1.089 -1.124,2.289 -1.355,3.599 -0.231,1.309 -0.181,2.661 0.149,4.054 l 2.33,9.834 c 0.33,1.393 0.891,2.623 1.686,3.691 0.793,1.066 1.734,1.935 2.825,2.608 1.089,0.672 2.289,1.123 3.599,1.355 1.309,0.23 2.661,0.18 4.054,-0.15 L 5.904,5.742 C 7.297,5.412 8.527,4.85 9.594,4.056 10.661,3.262 11.53,2.32 12.203,1.231 c 0.672,-1.09 1.123,-2.29 1.355,-3.599 0.23,-1.31 0.18,-2.661 -0.149,-4.054 l -1.893,-7.99 -17.21,4.077 -0.437,-1.845 c -0.223,-0.942 -0.124,-1.756 0.298,-2.439 0.422,-0.685 1.104,-1.138 2.047,-1.361 l 4.917,-1.166 c 0.778,-0.184 1.469,-0.24 2.071,-0.166 0.601,0.074 1.118,0.201 1.55,0.379 0.432,0.179 0.802,0.372 1.111,0.581 0.309,0.208 0.565,0.374 0.768,0.5 l 1.229,-0.291 2.345,-3.801 -0.291,-1.23 -3.041,-1.876 c -0.76,-0.469 -1.868,-0.802 -3.32,-0.998 -1.453,-0.197 -2.794,-0.149 -4.024,0.142 z" />
      </g>
      <g
         transform="translate(689.4714,828.308)"
         id="g4795">
        <path
           id="path4797"
           style="fill:#ffffff;fill-opacity:1;fill-rule:nonzero;stroke:none"
           d="M 0,0 C 1.178,-0.457 2.309,-1.179 3.395,-2.164 4.479,-3.15 5.204,-4.052 5.564,-4.869 l 1.441,-3.27 -0.457,-1.177 -4.675,-1.574 -1.178,0.457 c -0.097,0.218 -0.204,0.496 -0.32,0.835 -0.117,0.339 -0.293,0.702 -0.527,1.086 -0.235,0.385 -0.54,0.763 -0.915,1.134 -0.376,0.371 -0.857,0.672 -1.446,0.9 l -4.122,1.6 c -0.589,0.229 -1.115,0.184 -1.577,-0.134 -0.462,-0.318 -0.754,-0.634 -0.875,-0.947 -0.306,-0.786 -0.16,-1.486 0.438,-2.102 0.596,-0.615 1.399,-1.253 2.407,-1.916 1.007,-0.662 2.093,-1.354 3.259,-2.078 1.164,-0.722 2.174,-1.612 3.03,-2.666 0.855,-1.054 1.429,-2.282 1.722,-3.683 0.292,-1.401 0.057,-3.082 -0.705,-5.045 -0.914,-2.356 -2.412,-4.033 -4.493,-5.032 -2.081,-0.999 -4.594,-0.927 -7.539,0.215 l -4.711,1.828 c -1.177,0.457 -2.31,1.178 -3.394,2.165 -1.086,0.985 -1.809,1.886 -2.169,2.704 l -1.442,3.269 0.457,1.178 4.676,1.573 1.178,-0.457 c 0.095,-0.218 0.202,-0.496 0.319,-0.835 0.116,-0.34 0.292,-0.701 0.528,-1.086 0.234,-0.385 0.539,-0.762 0.915,-1.134 0.374,-0.372 0.857,-0.671 1.446,-0.9 l 4.711,-1.827 c 0.589,-0.229 1.114,-0.185 1.576,0.133 0.462,0.317 0.754,0.633 0.876,0.948 0.305,0.784 0.158,1.485 -0.438,2.101 -0.598,0.615 -1.4,1.254 -2.407,1.917 -1.008,0.662 -2.095,1.354 -3.259,2.077 -1.166,0.723 -2.176,1.611 -3.031,2.666 -0.856,1.054 -1.429,2.283 -1.721,3.683 -0.293,1.401 -0.058,3.082 0.704,5.045 0.914,2.356 2.402,4.037 4.464,5.044 2.061,1.006 4.565,0.939 7.509,-0.204 z" />
      </g>
      <g
         transform="translate(704.5593,821.1527)"
         id="g4799">
        <path
           id="path4801"
           style="fill:#ffffff;fill-opacity:1;fill-rule:nonzero;stroke:none"
           d="m 0,0 0.853,0.267 3.357,-1.759 3.809,7.274 4.237,-0.079 2.798,-1.465 0.266,-0.852 -4.395,-8.394 3.357,-1.759 0.266,-0.852 -2.637,-5.036 -0.852,-0.267 -3.358,1.759 -10.549,-20.145 -0.852,-0.266 -5.596,2.929 -0.267,0.853 10.549,20.145 -3.413,1.788 -0.211,0.823 z" />
      </g>
      <g
         transform="translate(495.0114,390.4027)"
         id="g4803">
        <path
           id="path4805"
           style="fill:#ffffff;fill-opacity:1;fill-rule:nonzero;stroke:none"
           d="m 0,0 6.289,-3.259 c 1.225,-0.635 2.474,-0.751 3.748,-0.346 1.273,0.404 2.227,1.218 2.861,2.444 0.636,1.225 0.75,2.474 0.347,3.748 -0.405,1.272 -1.219,2.226 -2.444,2.862 L 4.512,8.707 Z m 1.213,16.553 0.735,0.233 12.094,-6.266 c 1.322,-0.685 2.437,-1.591 3.348,-2.717 0.909,-1.126 1.574,-2.35 1.994,-3.672 0.419,-1.321 0.582,-2.705 0.488,-4.15 -0.094,-1.444 -0.483,-2.828 -1.168,-4.15 -0.685,-1.322 -1.592,-2.438 -2.717,-3.348 -1.126,-0.91 -2.35,-1.574 -3.672,-1.994 -1.321,-0.42 -2.705,-0.583 -4.149,-0.488 -1.445,0.094 -2.829,0.483 -4.15,1.168 l -6.773,3.51 -5.765,-11.127 -0.734,-0.234 -4.838,2.507 -0.233,0.735 z" />
      </g>
      <g
         transform="translate(519.7805,369.6019)"
         id="g4807">
        <path
           id="path4809"
           style="fill:#ffffff;fill-opacity:1;fill-rule:nonzero;stroke:none"
           d="M 0,0 C -0.24,0.087 -0.517,0.147 -0.832,0.185 -1.147,0.221 -1.46,0.209 -1.771,0.147 -2.083,0.086 -2.375,-0.05 -2.644,-0.262 c -0.27,-0.212 -0.472,-0.506 -0.607,-0.881 -0.137,-0.376 -0.169,-0.731 -0.096,-1.066 0.072,-0.335 0.208,-0.625 0.409,-0.872 0.201,-0.246 0.434,-0.456 0.7,-0.629 0.265,-0.174 0.517,-0.303 0.757,-0.39 l 2.613,-0.943 c 0.751,-0.271 1.425,-0.332 2.021,-0.18 0.595,0.152 1.104,0.411 1.527,0.781 0.423,0.368 0.757,0.759 1.003,1.172 0.245,0.414 0.418,0.756 0.517,1.03 z m 9.519,13.361 c 1.161,-0.42 2.16,-1.022 2.997,-1.806 0.836,-0.786 1.488,-1.678 1.958,-2.678 0.469,-1 0.737,-2.072 0.807,-3.217 C 15.35,4.515 15.175,3.361 14.756,2.2 l -5.739,-15.885 -0.697,-0.327 -1.025,0.37 -1.31,2.79 c -1.135,-0.363 -2.243,-0.542 -3.322,-0.538 -1.08,0.004 -2.269,0.241 -3.567,0.71 l -3.075,1.111 c -1.024,0.37 -1.93,0.909 -2.717,1.619 -0.786,0.708 -1.418,1.525 -1.895,2.451 -0.476,0.925 -0.75,1.931 -0.821,3.02 -0.07,1.086 0.104,2.21 0.524,3.373 0.419,1.161 0.994,2.112 1.725,2.852 0.731,0.74 1.566,1.288 2.506,1.644 0.939,0.356 1.926,0.52 2.959,0.495 C -0.664,5.859 0.365,5.661 1.39,5.291 L 8.051,2.885 8.606,4.422 C 8.89,5.207 8.885,5.914 8.59,6.542 8.296,7.17 7.755,7.626 6.97,7.909 L 3.896,9.021 C 3.246,9.255 2.66,9.369 2.138,9.365 1.614,9.36 1.159,9.304 0.771,9.192 0.384,9.081 0.047,8.952 -0.238,8.805 -0.523,8.655 -0.759,8.538 -0.944,8.451 l -1.025,0.37 -1.637,3.489 0.371,1.024 2.79,1.31 c 0.697,0.327 1.678,0.502 2.943,0.529 1.264,0.026 2.409,-0.146 3.434,-0.516 z" />
      </g>
      <g
         transform="translate(549.9763,369.097)"
         id="g4811">
        <path
           id="path4813"
           style="fill:#ffffff;fill-opacity:1;fill-rule:nonzero;stroke:none"
           d="m 0,0 c -0.688,-0.525 -1.131,-1.192 -1.328,-2.004 l -3.734,-15.353 -0.658,-0.401 -5.294,1.287 -0.401,0.658 5.922,24.354 0.712,0.388 1.006,-0.245 1.602,-2.633 C -1.321,6.479 -0.388,6.785 0.629,6.968 1.645,7.15 2.824,7.079 4.166,6.753 L 6.812,6.108 7.213,5.451 5.926,0.156 5.268,-0.244 2.621,0.399 C 1.562,0.657 0.688,0.523 0,0" />
      </g>
      <g
         transform="translate(564.3112,382.182)"
         id="g4815">
        <path
           id="path4817"
           style="fill:#ffffff;fill-opacity:1;fill-rule:nonzero;stroke:none"
           d="M 0,0 0.625,0.451 6.003,-0.415 6.455,-1.04 5.588,-6.419 4.963,-6.87 l -5.379,0.866 -0.451,0.625 z m -1.387,-8.606 0.625,0.451 5.379,-0.866 0.451,-0.625 -3.986,-24.744 -0.625,-0.451 -5.379,0.866 -0.452,0.625 z" />
      </g>
      <g
         transform="translate(587.6354,371.2289)"
         id="g4819">
        <path
           id="path4821"
           style="fill:#ffffff;fill-opacity:1;fill-rule:nonzero;stroke:none"
           d="M 0,0 C 1.087,-0.073 2.204,-0.377 3.352,-0.909 4.498,-1.442 5.326,-1.998 5.833,-2.578 L 7.86,-4.899 7.787,-5.986 4.341,-8.484 3.254,-8.411 c -0.135,0.154 -0.295,0.356 -0.478,0.606 -0.183,0.248 -0.422,0.501 -0.713,0.758 -0.292,0.256 -0.641,0.488 -1.045,0.698 -0.405,0.209 -0.878,0.333 -1.422,0.37 l -3.805,0.256 C -4.753,-5.686 -5.174,-5.857 -5.473,-6.237 -5.771,-6.618 -5.931,-6.953 -5.95,-7.243 -6,-7.969 -5.7,-8.507 -5.049,-8.86 c 0.649,-0.354 1.474,-0.673 2.474,-0.959 1,-0.286 2.072,-0.577 3.218,-0.872 1.145,-0.296 2.205,-0.769 3.18,-1.417 0.975,-0.649 1.763,-1.511 2.365,-2.59 0.6,-1.078 0.839,-2.524 0.717,-4.335 -0.147,-2.174 -0.948,-3.941 -2.405,-5.298 -1.458,-1.358 -3.545,-1.945 -6.263,-1.762 l -4.349,0.294 c -1.087,0.073 -2.205,0.376 -3.351,0.909 -1.148,0.533 -1.975,1.089 -2.481,1.669 l -2.028,2.322 0.074,1.087 3.445,2.498 1.087,-0.074 c 0.135,-0.155 0.294,-0.356 0.478,-0.605 0.182,-0.25 0.421,-0.502 0.713,-0.758 0.292,-0.258 0.64,-0.49 1.045,-0.699 0.404,-0.21 0.879,-0.332 1.422,-0.369 l 4.349,-0.294 c 0.544,-0.036 0.965,0.134 1.263,0.515 0.299,0.38 0.458,0.715 0.478,1.005 0.049,0.725 -0.252,1.264 -0.901,1.617 -0.65,0.354 -1.475,0.674 -2.475,0.959 -1,0.287 -2.072,0.578 -3.217,0.873 -1.145,0.296 -2.206,0.768 -3.181,1.416 -0.976,0.649 -1.764,1.512 -2.364,2.59 -0.601,1.078 -0.84,2.523 -0.718,4.335 0.147,2.175 0.94,3.942 2.379,5.301 1.438,1.358 3.517,1.946 6.235,1.763 z" />
      </g>
      <g
         transform="translate(613.864,371.0228)"
         id="g4823">
        <path
           id="path4825"
           style="fill:#ffffff;fill-opacity:1;fill-rule:nonzero;stroke:none"
           d="m 0,0 c -0.133,1.228 -0.032,2.39 0.307,3.486 0.337,1.096 0.851,2.075 1.544,2.936 0.691,0.86 1.537,1.573 2.535,2.139 0.998,0.564 2.111,0.914 3.339,1.047 l 3.25,0.354 c 1.227,0.133 2.389,0.03 3.486,-0.307 C 15.557,9.317 16.535,8.803 17.396,8.11 18.257,7.418 18.969,6.573 19.535,5.575 20.1,4.577 20.45,3.464 20.583,2.236 l 0.118,-1.083 c 0.113,-1.048 0.065,-2.039 -0.143,-2.974 -0.209,-0.937 -0.668,-2.01 -1.377,-3.219 l -9.479,-13.635 0.059,-0.542 12.999,1.412 0.589,-5.416 -0.483,-0.6 -20.041,-2.178 -0.6,0.483 -0.589,5.416 10.928,15.437 c 0.467,0.744 0.821,1.35 1.063,1.814 0.242,0.465 0.416,0.876 0.524,1.236 0.106,0.358 0.152,0.692 0.138,1.001 -0.016,0.308 -0.045,0.662 -0.088,1.059 L 14.083,1.53 c -0.09,0.83 -0.405,1.463 -0.946,1.898 -0.54,0.434 -1.226,0.607 -2.056,0.516 L 8.914,3.709 C 8.083,3.619 7.451,3.304 7.017,2.763 6.582,2.223 6.41,1.537 6.5,0.707 l 0.118,-1.084 -0.483,-0.601 -5.417,-0.587 -0.6,0.482 z" />
      </g>
      <g
         transform="translate(648.4567,379.0169)"
         id="g4827">
        <path
           id="path4829"
           style="fill:#ffffff;fill-opacity:1;fill-rule:nonzero;stroke:none"
           d="m 0,0 c -0.812,-0.195 -1.409,-0.591 -1.788,-1.187 -0.38,-0.595 -0.472,-1.299 -0.277,-2.111 l 4.071,-16.953 c 0.196,-0.812 0.597,-1.397 1.206,-1.755 0.609,-0.358 1.319,-0.439 2.132,-0.245 l 3.603,0.865 c 0.812,0.196 1.407,0.591 1.788,1.187 0.38,0.595 0.473,1.299 0.277,2.111 L 6.94,-1.135 C 6.746,-0.323 6.343,0.263 5.734,0.621 5.125,0.979 4.415,1.061 3.603,0.865 Z m -8.423,-4.825 c -0.288,1.2 -0.335,2.366 -0.139,3.497 0.195,1.13 0.581,2.165 1.159,3.107 0.576,0.942 1.323,1.756 2.242,2.445 0.918,0.686 1.978,1.174 3.179,1.463 L 2.786,6.833 C 3.986,7.121 5.151,7.167 6.282,6.972 7.413,6.775 8.448,6.39 9.39,5.813 10.332,5.235 11.146,4.488 11.834,3.57 12.521,2.651 13.01,1.593 13.298,0.393 l 4.072,-16.954 c 0.288,-1.201 0.334,-2.367 0.139,-3.497 -0.196,-1.13 -0.582,-2.166 -1.158,-3.107 -0.578,-0.942 -1.325,-1.757 -2.243,-2.444 -0.919,-0.688 -1.979,-1.175 -3.179,-1.464 l -4.768,-1.145 c -1.201,-0.289 -2.366,-0.336 -3.496,-0.139 -1.131,0.195 -2.167,0.581 -3.108,1.159 -0.942,0.576 -1.757,1.323 -2.444,2.242 -0.688,0.918 -1.175,1.977 -1.464,3.179 z" />
      </g>
      <g
         transform="translate(675.5104,362.1654)"
         id="g4831">
        <path
           id="path4833"
           style="fill:#ffffff;fill-opacity:1;fill-rule:nonzero;stroke:none"
           d="m 0,0 0.317,0.702 5.606,2.119 -7.709,20.385 -5.22,-3.139 -0.702,0.317 -1.735,4.587 0.317,0.702 8.402,5.508 2.038,0.77 0.703,-0.316 10.021,-26.5 5.606,2.119 L 18.346,6.937 20.1,2.3 19.764,1.648 2.437,-4.904 1.734,-4.587 Z" />
      </g>
      <g
         transform="translate(703.8566,380.6097)"
         id="g4835">
        <path
           id="path4837"
           style="fill:#ffffff;fill-opacity:1;fill-rule:nonzero;stroke:none"
           d="m 0,0 1.274,-2.408 c 0.391,-0.738 0.917,-1.21 1.58,-1.414 0.663,-0.204 1.363,-0.111 2.102,0.28 l 2.89,1.528 c 0.737,0.391 1.209,0.917 1.413,1.58 0.204,0.663 0.112,1.364 -0.28,2.102 L 7.706,4.076 C 7.315,4.814 6.722,5.354 5.926,5.692 5.13,6.032 4.251,5.947 3.288,5.437 L 1.361,4.418 C 0.398,3.909 -0.167,3.229 -0.334,2.381 -0.502,1.531 -0.39,0.738 0,0 m 0.485,10.735 c 0.963,0.509 1.529,1.188 1.696,2.037 0.168,0.849 0.056,1.642 -0.335,2.381 L 0.827,17.08 c -0.39,0.737 -0.917,1.209 -1.58,1.413 -0.663,0.204 -1.363,0.111 -2.101,-0.279 l -2.89,-1.528 c -0.739,-0.392 -1.21,-0.918 -1.414,-1.581 -0.204,-0.663 -0.111,-1.364 0.28,-2.101 l 1.019,-1.927 C -5.468,10.338 -4.875,9.8 -4.08,9.461 -3.284,9.121 -2.404,9.206 -1.441,9.716 Z M -12.658,9.946 c -0.577,1.091 -0.912,2.208 -1.003,3.353 -0.091,1.142 0.026,2.242 0.351,3.298 0.325,1.055 0.847,2.03 1.566,2.924 0.719,0.894 1.624,1.629 2.716,2.208 l 3.853,2.038 c 1.091,0.577 2.209,0.911 3.352,1.003 1.144,0.089 2.243,-0.027 3.299,-0.352 1.055,-0.325 2.029,-0.848 2.923,-1.565 0.894,-0.72 1.63,-1.625 2.207,-2.716 L 7.625,18.21 C 8.271,16.99 8.624,15.8 8.682,14.64 8.742,13.479 8.596,12.415 8.244,11.449 9.241,11.195 10.202,10.718 11.128,10.017 12.054,9.313 12.84,8.354 13.485,7.134 L 14.759,4.726 C 15.336,3.634 15.67,2.516 15.762,1.373 15.853,0.229 15.736,-0.87 15.411,-1.926 15.085,-2.981 14.564,-3.956 13.845,-4.85 13.126,-5.744 12.221,-6.479 11.129,-7.057 L 7.277,-9.095 c -1.092,-0.577 -2.21,-0.912 -3.353,-1.003 -1.144,-0.091 -2.243,0.026 -3.298,0.351 -1.056,0.325 -2.03,0.847 -2.924,1.566 -0.894,0.718 -1.63,1.624 -2.207,2.716 l -1.274,2.408 c -0.645,1.22 -0.997,2.41 -1.057,3.571 -0.059,1.16 0.071,2.215 0.391,3.165 -0.965,0.269 -1.91,0.756 -2.837,1.458 -0.926,0.702 -1.711,1.662 -2.357,2.883 z" />
      </g>
      <g
         transform="translate(483.8625,461.2728)"
         id="g4839">
        <path
           id="path4841"
           style="fill:#ffffff;fill-opacity:1;fill-rule:nonzero;stroke:none"
           d="m 0,0 c -5.297,-5.298 -13.885,-5.298 -19.183,0 -5.297,5.297 -5.297,13.886 0,19.183 5.298,5.296 13.886,5.296 19.183,0 C 5.297,13.886 5.297,5.297 0,0 m 4.286,40.911 -45.812,-5.04 c -1.098,-0.22 -2.129,-0.547 -3.092,-0.966 -1.076,-0.123 -2.026,-0.523 -2.741,-1.239 L -87.047,-6.021 v 0 l -5.97,-5.97 -9.507,-9.507 -19.158,-19.158 c -10.594,-10.595 -10.594,-27.772 0,-38.365 l 23.477,-23.478 c 10.595,-10.595 27.772,-10.595 38.366,0 l 28.666,28.665 45.656,45.657 c 0.716,0.716 1.117,1.665 1.24,2.741 0.419,0.963 0.746,1.995 0.966,3.092 l 5.04,45.812 C 23.803,33.84 14.658,42.985 4.286,40.911" />
      </g>
      <g
         transform="translate(736.4431,713.8529)"
         id="g4843">
        <path
           id="path4845"
           style="fill:#ffffff;fill-opacity:1;fill-rule:nonzero;stroke:none"
           d="m 0,0 c -5.297,-5.297 -13.885,-5.297 -19.183,0 -5.297,5.297 -5.297,13.886 0,19.183 5.298,5.297 13.886,5.297 19.183,0 C 5.297,13.886 5.297,5.297 0,0 m 102.5,98.205 -23.478,23.478 c -10.595,10.593 -27.772,10.593 -38.366,0 L 21.498,102.524 6.021,87.048 -33.666,47.36 c -0.716,-0.716 -1.117,-1.666 -1.24,-2.742 -0.419,-0.963 -0.746,-1.994 -0.966,-3.092 l -5.039,-45.811 c -2.074,-10.372 7.071,-19.518 17.443,-17.444 l 45.812,5.041 c 1.097,0.219 2.129,0.546 3.092,0.965 1.075,0.123 2.025,0.524 2.741,1.24 L 67.865,25.204 83.341,40.681 102.5,59.839 c 10.594,10.595 10.594,27.771 0,38.366" />
      </g>
      <g
         transform="translate(483.8625,713.8529)"
         id="g4847">
        <path
           id="path4849"
           style="fill:#ffffff;fill-opacity:1;fill-rule:nonzero;stroke:none"
           d="m 0,0 c -5.297,-5.297 -13.885,-5.297 -19.183,0 -5.297,5.297 -5.297,13.886 0,19.183 5.298,5.297 13.886,5.297 19.183,0 C 5.297,13.886 5.297,5.297 0,0 m 21.729,-4.285 -5.04,45.811 c -0.22,1.098 -0.547,2.129 -0.966,3.092 -0.123,1.076 -0.524,2.026 -1.24,2.742 l -45.656,45.657 -28.666,28.666 c -10.594,10.593 -27.771,10.593 -38.366,0 l -23.477,-23.478 c -10.594,-10.595 -10.594,-27.771 0,-38.366 l 19.158,-19.158 9.507,-9.507 5.97,-5.97 v 0 l 39.688,-39.687 c 0.715,-0.716 1.665,-1.117 2.741,-1.24 0.963,-0.419 1.994,-0.746 3.092,-0.965 l 45.812,-5.041 c 10.372,-2.074 19.517,7.072 17.443,17.444" />
      </g>
      <g
         transform="translate(736.4431,461.2728)"
         id="g4851">
        <path
           id="path4853"
           style="fill:#ffffff;fill-opacity:1;fill-rule:nonzero;stroke:none"
           d="m 0,0 c -5.297,-5.298 -13.885,-5.298 -19.183,0 -5.297,5.297 -5.297,13.886 0,19.183 5.298,5.296 13.886,5.296 19.183,0 C 5.297,13.886 5.297,5.297 0,0 M 102.5,-40.656 83.341,-21.498 67.865,-6.021 28.177,33.666 c -0.716,0.716 -1.666,1.116 -2.741,1.239 -0.963,0.419 -1.995,0.746 -3.092,0.966 l -45.812,5.04 C -33.84,42.985 -42.985,33.84 -40.911,23.468 l 5.039,-45.812 c 0.22,-1.097 0.547,-2.129 0.966,-3.092 0.123,-1.076 0.524,-2.025 1.24,-2.741 l 39.687,-39.688 15.477,-15.476 19.158,-19.158 c 10.594,-10.595 27.771,-10.595 38.366,0 l 23.478,23.478 c 10.594,10.593 10.594,27.77 0,38.365" />
      </g>
    </g>
  </g>
</svg>
