<!-- Ferrisbot likes content, and so do we :) -->
<svg width="4591" height="3432" viewBox="0 0 4591 3432" fill="none" xmlns="http://www.w3.org/2000/svg">
  <path d="M874.116 774C874.116 718.471 829.101 673.456 773.572 673.456H100.544C45.0151 673.456 0 718.471 0 774C0 829.529 45.0151 874.544 100.544 874.544H773.572C829.101 874.544 874.116 829.529 874.116 774Z" transform="translate(3242 157.456)" fill="#333333"/>
  <path d="M773.621 874.544C829.123 874.544 874.116 829.551 874.116 774.049V100.495C874.116 44.9931 829.123 0 773.621 0C718.119 0 673.126 44.9931 673.126 100.495V774.049C673.126 829.551 718.119 874.544 773.621 874.544Z" transform="translate(3242 157.456)" fill="#333333"/>
  <ellipse cx="158.327" cy="158.404" rx="158.327" ry="158.404" transform="translate(3856.35)" fill="#FF5722"/>
  <path d="M0 774C0 718.471 45.0151 673.456 100.544 673.456H773.572C829.101 673.456 874.116 718.471 874.116 774C874.116 829.529 829.101 874.544 773.572 874.544H100.544C45.0151 874.544 0 829.529 0 774Z" transform="translate(491.884 157.456)" fill="#333333"/>
  <path d="M100.495 874.544C44.9931 874.544 0 829.551 0 774.049V100.495C0 44.9931 44.9931 0 100.495 0C155.997 0 200.99 44.9931 200.99 100.495V774.049C200.99 829.551 155.997 874.544 100.495 874.544Z" transform="translate(491.884 157.456)" fill="#333333"/>
  <ellipse cx="158.327" cy="158.404" rx="158.327" ry="158.404" transform="translate(751.654) scale(-1 1)" fill="#FF5722"/>
  <path d="M339.77 -1.2207e-05C208.137 -1.2207e-05 88.542 15.825 -4.39453e-06 41.615V261.913C88.542 287.703 208.137 303.527 339.77 303.527C490.427 303.527 625.305 282.798 715.904 250.125V53.407C625.305 20.731 490.427 -1.2207e-05 339.77 -1.2207e-05Z" transform="translate(869.473 1309.73) scale(4.16667)" fill="#2F80ED"/>
  <path d="M47.7137 68.0652C43.8567 57.4022 43.0848 43.9113 46.3528 30.9033C52.2028 7.61425 68.7738 -5.29476 83.3658 2.07024C86.9838 3.89724 90.1397 6.80124 92.7527 10.4882C92.9917 10.4872 93.2308 10.4883 93.4678 10.5043C93.4678 10.5043 138.02 63.6102 96.7807 126.507C95.8857 130.076 20.2468 218.225 2.73777 221.031C-8.72223 222.867 17.6287 131.033 47.7137 68.0652Z" transform="translate(3678.13 1856.93) scale(4.16667)" fill="#2F80ED"/>
  <path d="M78.9497 74.2556C84.2497 64.6256 86.1077 51.4676 83.1667 37.8306C77.9007 13.4146 59.2567 -3.27938 41.5247 0.545618C37.1267 1.49362 33.1997 3.61761 29.8587 6.64361C29.5767 6.58561 29.2947 6.53062 29.0137 6.49062C29.0137 6.49062 -27.2783 48.4426 16.9567 120.415C17.7617 124.156 100.808 229.253 121.268 236.178C134.659 240.71 110.021 143.653 78.9497 74.2556Z" transform="translate(502.38 1787.72) scale(4.16667)" fill="#2F80ED"/>
  <path d="M957.032 412.589C956.152 409.525 955.276 406.463 954.37 403.427L985.053 358.976C988.183 354.454 988.823 348.578 986.783 343.421C984.743 338.291 980.293 334.611 975.023 333.711L923.137 324.906C921.129 320.804 919.021 316.764 916.907 312.756L938.704 262.853C940.947 257.766 940.473 251.858 937.501 247.245C934.54 242.609 929.511 239.901 924.152 240.112L871.496 242.025C868.769 238.475 866 234.957 863.174 231.504L875.275 178.014C876.5 172.581 874.953 166.896 871.172 162.95C867.41 159.018 861.943 157.391 856.746 158.667L805.457 171.275C802.136 168.34 798.758 165.442 795.343 162.602L797.191 107.688C797.389 102.129 794.798 96.847 790.347 93.763C785.901 90.659 780.254 90.19 775.391 92.497L727.544 115.244C723.69 113.034 719.816 110.844 715.9 108.727L707.445 54.612C706.588 49.13 703.06 44.474 698.119 42.347C693.196 40.209 687.551 40.899 683.228 44.155L640.569 76.162C636.369 74.766 632.15 73.429 627.877 72.151L609.491 20.834C607.621 15.605 603.31 11.763 598.053 10.683C592.814 9.612 587.423 11.426 583.79 15.485L547.883 55.657C543.541 55.157 539.198 54.701 534.84 54.325L507.117 7.612C504.307 2.88 499.347 1.04904e-08 494.001 1.04904e-08C488.667 1.04904e-08 483.697 2.88 480.911 7.612L453.178 54.325C448.82 54.701 444.456 55.157 440.122 55.657L404.212 15.485C400.576 11.426 395.165 9.612 389.944 10.683C384.689 11.775 380.371 15.605 378.511 20.834L360.109 72.151C355.849 73.429 351.628 74.778 347.418 76.162L304.774 44.155C300.438 40.889 294.794 40.2 289.858 42.347C284.939 44.474 281.397 49.13 280.545 54.612L272.084 108.727C268.17 110.844 264.295 113.021 260.431 115.244L212.589 92.497C207.731 90.182 202.06 90.659 197.635 93.763C193.19 96.847 190.593 102.129 190.795 107.688L192.63 162.602C189.225 165.442 185.856 168.34 182.518 171.275L131.239 158.667C126.028 157.402 120.569 159.018 116.798 162.95C113.003 166.896 111.466 172.581 112.685 178.014L124.764 231.504C121.962 234.971 119.189 238.475 116.471 242.025L63.8162 240.112C58.5012 239.955 53.4292 242.609 50.4602 247.245C47.4852 251.858 47.0352 257.766 49.2492 262.853L71.0632 312.756C68.9442 316.764 66.8392 320.804 64.8142 324.906L12.9312 333.711C7.66016 334.599 3.21716 338.277 1.16716 343.421C-0.86984 348.578 -0.208843 354.454 2.90216 358.976L33.5922 403.427C33.3552 404.211 33.1372 405.003 32.9022 405.791L16.0392 423.703L61.3802 487.752C61.3802 487.752 496.532 688.484 900.177 491.148C946.285 482.875 957.032 412.589 957.032 412.589Z" transform="translate(246.369 90) scale(4.16667)" fill="#2D9CDB"/>
  <path d="M46.975 102.54C34.282 91.8401 0.813033 82.1221 0.0550328 63.3021C-1.30097 29.6041 22.567 1.28111 53.367 0.0421141C61.005 -0.265886 68.351 1.12514 75.102 3.89914C75.544 3.72514 75.986 3.55313 76.431 3.40213C76.431 3.40213 179.425 54.2206 171.745 73.6607C171.9 77.4644 61.405 335.403 46.975 335.403C32.5451 335.403 29.9051 335.403 18.781 335.403C7.82507 316.66 24.287 203.972 46.975 102.54Z" transform="translate(3873.4 1722.58) scale(4.16667)" fill="#2D9CDB"/>
  <path d="M46.975 102.54C34.282 91.8401 0.813033 82.1221 0.0550328 63.3021C-1.30097 29.6041 22.567 1.28111 53.367 0.0421141C61.005 -0.265886 68.351 1.12514 75.102 3.89914C75.544 3.72514 75.986 3.55313 76.431 3.40213C76.431 3.40213 179.425 54.2206 171.745 73.6607C171.9 77.4644 61.405 335.403 46.975 335.403C32.5451 335.403 29.9051 335.403 18.781 335.403C7.82507 316.66 24.287 203.972 46.975 102.54Z" transform="translate(717.309 1722.58) scale(-4.16667 4.16667)" fill="#2D9CDB"/>
  <path d="M0.000559456 1.3916e-05C0.000559456 1.3916e-05 -1.38242 137.296 133.167 167.932L161.221 111.569C161.221 111.569 63.7256 121 56.2256 1.3916e-05H0.000559456Z" transform="translate(892.425 2153.52) scale(4.16667)" fill="#2D9CDB"/>
  <path d="M126.078 125.349C126.078 125.349 156.224 116.738 231.691 118.599C238.301 71.0876 265.531 78.3986 231.691 60.1587C203.087 50.4698 95.2069 -5.23124 75.8112 0.398659C56.4156 6.02856 33.1008 43.2484 23.5327 71.4941C13.8888 99.9637 -6.0288 125.199 1.77125 144.639C9.5713 164.079 134.483 218.203 162.811 227.799C190.932 237.325 195.331 227.799 204.451 208.239C167.54 171.734 126.078 125.349 126.078 125.349Z" transform="translate(1257.12 2466.34) scale(4.16667)" fill="#2D9CDB"/>
  <path d="M161.221 1.3916e-05C161.221 1.3916e-05 162.603 137.296 28.054 167.932L-8.78906e-06 111.569C-8.78906e-06 111.569 97.495 121 104.995 1.3916e-05H161.221Z" transform="translate(3075.76 2153.52) scale(4.16667)" fill="#2D9CDB"/>
  <path d="M126.078 125.349C126.078 125.349 156.224 116.738 231.691 118.599C238.301 71.0876 265.531 78.3986 231.691 60.1587C203.087 50.4698 95.2069 -5.23124 75.8112 0.398659C56.4156 6.02856 33.1008 43.2484 23.5327 71.4941C13.8888 99.9637 -6.0288 125.199 1.77125 144.639C9.5713 164.079 134.483 218.203 162.811 227.799C190.932 237.325 195.331 227.799 204.451 208.239C167.54 171.734 126.078 125.349 126.078 125.349Z" transform="translate(3371.63 2466.34) scale(-4.16667 4.16667)" fill="#2D9CDB"/>
  <ellipse cx="331.102" cy="331" rx="331.102" ry="331" transform="translate(1395 1461)" fill="#F2F2F2"/>
  <ellipse cx="331.102" cy="331" rx="331.102" ry="331" transform="translate(1395 1461)" fill="#F2F2F2"/>
  <path fill-rule="evenodd" clip-rule="evenodd" d="M0 513.62V45.3137C43.8901 16.6573 96.3315 0 152.665 0C210.704 0 264.612 17.6815 309.293 47.95V510.984C264.646 541.23 210.785 558.907 152.796 558.934H152.533C96.2495 558.908 43.856 542.254 0 513.62Z" transform="translate(1573.44 1512.53)" fill="#FF5722"/>
  <ellipse cx="331.102" cy="331" rx="331.102" ry="331" transform="translate(2552 1461)" fill="#F2F2F2"/>
  <ellipse cx="331.102" cy="331" rx="331.102" ry="331" transform="translate(2552 1461)" fill="#F2F2F2"/>
  <path fill-rule="evenodd" clip-rule="evenodd" d="M0 513.62V45.3137C43.8901 16.6573 96.3315 0 152.665 0C210.704 0 264.612 17.6815 309.293 47.95V510.984C264.646 541.23 210.785 558.907 152.796 558.934H152.533C96.2495 558.908 43.856 542.254 0 513.62Z" transform="translate(2730.44 1512.53)" fill="#FF5722"/>
</svg>
