<?xml version="1.0" encoding="UTF-8" standalone="no"?>
<svg
   xmlns:dc="http://purl.org/dc/elements/1.1/"
   xmlns:cc="http://creativecommons.org/ns#"
   xmlns:rdf="http://www.w3.org/1999/02/22-rdf-syntax-ns#"
   xmlns:svg="http://www.w3.org/2000/svg"
   xmlns="http://www.w3.org/2000/svg"
   xmlns:sodipodi="http://sodipodi.sourceforge.net/DTD/sodipodi-0.dtd"
   xmlns:inkscape="http://www.inkscape.org/namespaces/inkscape"
   xml:space="preserve"
   style="enable-background:new 0 0 144 144;"
   viewBox="19 19 106 106"
   height="144px"
   width="144px"
   y="0px"
   x="0px"
   id="Layer_1"
   version="1.1"
   inkscape:version="0.92.2 (5c3e80d, 2017-08-06)"
   sodipodi:docname="gay cog.svg"><metadata
     id="metadata8"><rdf:RDF><cc:Work
         rdf:about=""><dc:format>image/svg+xml</dc:format><dc:type
           rdf:resource="http://purl.org/dc/dcmitype/StillImage" /></cc:Work></rdf:RDF></metadata><defs
     id="defs6"><clipPath
       clipPathUnits="userSpaceOnUse"
       id="clipPath50"><path
         id="path52"
         d="m 618.3241,234.283 -19.56424,-12.11077 c -0.16486,-1.90566 -0.35174,-3.80687 -0.55655,-5.69918 l 16.81259,-15.68166 c 1.70975,-1.594 2.47558,-3.95381 2.01253,-6.23794 -0.44971,-2.29303 -2.05707,-4.18089 -4.24321,-4.99569 l -21.49219,-8.03674 c -0.53876,-1.86115 -1.10419,-3.70893 -1.68304,-5.54781 l 13.40646,-18.6203 c 1.36689,-1.89231 1.64742,-4.35454 0.75691,-6.51399 -0.8905,-2.15055 -2.83624,-3.69112 -5.13818,-4.06958 l -22.66314,-3.68666 c -0.88162,-1.71866 -1.7988,-3.4106 -2.72493,-5.08919 l 9.52386,-20.90443 c 0.9751,-2.12829 0.77475,-4.60388 -0.52538,-6.53626 -1.29567,-1.94128 -3.49076,-3.07667 -5.83275,-2.98762 l -23.00158,0.80145 c -1.1888,-1.48713 -2.39987,-2.9609 -3.63321,-4.40796 l 5.28508,-22.404925 c 0.5343,-2.27522 -0.13799,-4.657303 -1.79435,-6.309176 -1.64296,-1.647419 -4.02949,-2.32865 -6.30471,-1.794351 l -22.40049,5.280649 c -1.45148,-1.228886 -2.92529,-2.444415 -4.41686,-3.63323 l 0.80592,-23.001554 c 0.0891,-2.328653 -1.04635,-4.54154 -2.98763,-5.832761 -1.94574,-1.300126 -4.40798,-1.496037 -6.53182,-0.529845 l -20.89996,9.528326 c -1.6875,-0.926117 -3.37946,-1.843333 -5.08921,-2.729376 l -3.69555,-22.667619 c -0.37403,-2.297484 -1.91458,-4.247674 -4.06958,-5.138172 -2.15056,-0.89495 -4.61723,-0.605538 -6.50954,0.756923 l -18.63366,13.406444 c -1.83443,-0.583279 -3.67776,-1.14429 -5.5389,-1.678589 L 438.96005,15.7148 c -0.81481,-2.190625 -2.70266,-3.797973 -4.99569,-4.252127 -2.28858,-0.449701 -4.64395,0.311674 -6.23349,2.012525 l -15.68166,16.825954 c -1.89231,-0.209267 -3.79797,-0.400724 -5.69919,-0.556562 L 394.23925,10.175904 c -1.22443,-1.9813573 -3.39279,-3.1879817 -5.7259,-3.1879817 -2.3331,0 -4.50146,1.2066244 -5.72144,3.1879817 L 370.68114,29.74459 c -1.90567,0.155837 -3.81133,0.347295 -5.70364,0.556562 L 349.29139,13.475198 c -1.58954,-1.700851 -3.94936,-2.462226 -6.23349,-2.012525 -2.29303,0.458606 -4.18089,2.061502 -4.99569,4.252127 l -8.03674,21.496614 c -1.86114,0.534299 -3.70447,1.099764 -5.54335,1.678589 L 305.85291,25.483559 c -1.89231,-1.366914 -4.35899,-1.656325 -6.51399,-0.756923 -2.15056,0.890498 -3.69557,2.840688 -4.06958,5.138172 l -3.69556,22.667619 c -1.70976,0.886043 -3.4017,1.798804 -5.0892,2.729376 L 265.5846,45.733477 c -2.12384,-0.970642 -4.59942,-0.770281 -6.5318,0.529845 -1.94128,1.291221 -3.07667,3.504108 -2.98762,5.832761 l 0.80145,23.001554 c -1.48713,1.188815 -2.96091,2.404344 -4.41687,3.63323 l -22.40047,-5.280649 c -2.27522,-0.529848 -4.66175,0.146932 -6.30917,1.794351 -1.65633,1.651873 -2.32866,4.033956 -1.79436,6.309176 l 5.2762,22.404925 c -1.22443,1.45151 -2.43551,2.92083 -3.62432,4.40796 l -23.00156,-0.80145 c -2.31975,-0.0668 -4.53708,1.04634 -5.83276,2.98762 -1.30012,1.93238 -1.49604,4.40797 -0.52984,6.53626 l 9.52832,20.90443 c -0.92612,1.67859 -1.84333,3.37053 -2.72937,5.08919 l -22.66317,3.68666 c -2.30194,0.37401 -4.24322,1.91457 -5.13817,4.06958 -0.8905,2.15945 -0.60109,4.62168 0.75692,6.51399 l 13.40644,18.6203 c -0.58327,1.83888 -1.14874,3.68666 -1.68304,5.54781 l -21.49661,8.03674 c -2.18172,0.8148 -3.78907,2.70266 -4.24322,4.99569 -0.45416,2.28858 0.30722,4.64394 2.01252,6.23794 l 16.81705,15.68166 c -0.20927,1.89231 -0.39627,3.79797 -0.55656,5.69918 L 158.68036,234.283 c -1.98136,1.22444 -3.18799,3.38835 -3.18799,5.7259 0,2.33756 1.20663,4.50147 3.18799,5.72145 l 19.56423,12.11077 c 0.16029,1.90566 0.34729,3.80688 0.55656,5.69918 l -16.81705,15.68612 c -1.7053,1.58954 -2.46668,3.94936 -2.01252,6.23348 0.45415,2.29304 2.0615,4.17644 4.24322,4.9957 l 21.49661,8.03674 c 0.5343,1.86114 1.09977,3.70892 1.68304,5.5478 l -13.40644,18.62476 c -1.36246,1.89676 -1.65187,4.35898 -0.75692,6.50954 0.89495,2.15945 2.84069,3.7 5.14262,4.06958 l 22.65872,3.68666 c 0.88604,1.71867 1.79435,3.41059 2.72937,5.09809 l -9.52832,20.89554 c -0.97065,2.12384 -0.77028,4.59496 0.52984,6.53624 1.30013,1.94574 3.51301,3.08114 5.83276,2.98763 l 22.99265,-0.80591 c 1.19772,1.49602 2.40435,2.96092 3.63323,4.41686 l -5.2762,22.4094 c -0.5343,2.27076 0.13802,4.64392 1.79436,6.2958 1.64297,1.66078 4.03395,2.32422 6.30917,1.78992 l 22.40047,-5.2762 c 1.45596,1.23779 2.92974,2.43996 4.41687,3.62432 l -0.80145,23.00601 c -0.089,2.32865 1.04634,4.53708 2.98762,5.83721 1.93238,1.29567 4.40796,1.49157 6.5318,0.52093 l 20.89998,-9.52387 c 1.68304,0.93501 3.37499,1.84335 5.0892,2.72939 l 3.69556,22.65426 c 0.37401,2.30637 1.91457,4.25656 4.06958,5.14261 2.15055,0.89496 4.62168,0.60555 6.51399,-0.75246 l 18.6203,-13.41537 c 1.83888,0.5833 3.68666,1.1532 5.54781,1.6875 l 8.03674,21.48772 c 0.8148,2.18172 2.70266,3.79797 4.99569,4.24322 2.28858,0.46305 4.64394,-0.30285 6.23348,-2.01253 l 15.68612,-16.81706 c 1.89231,0.21829 3.79797,0.40075 5.70364,0.56993 l 12.11076,19.56424 c 1.21999,1.97245 3.38835,3.18799 5.72145,3.18799 2.33311,0 4.50147,-1.21108 5.7259,-3.18799 l 12.11077,-19.56424 c 1.90567,-0.16912 3.80688,-0.35174 5.69919,-0.56993 l 15.68166,16.81706 c 1.58954,1.70975 3.94936,2.47558 6.23348,2.01253 2.29304,-0.44971 4.18089,-2.0615 4.9957,-4.24322 l 8.03674,-21.48772 c 1.86114,-0.5343 3.70892,-1.1042 5.5478,-1.6875 l 18.62476,13.41537 c 1.8923,1.35801 4.35898,1.64742 6.50954,0.75246 2.155,-0.88605 3.69554,-2.8407 4.06958,-5.14261 l 3.69557,-22.65426 c 1.70975,-0.88604 3.40168,-1.80772 5.08918,-2.72939 l 20.89996,9.52387 c 2.12387,0.97064 4.595,0.77474 6.53182,-0.52093 1.94128,-1.30013 3.07222,-3.5041 2.98763,-5.83721 l -0.80146,-23.00601 c 1.48715,-1.18882 2.96092,-2.38653 4.41241,-3.62432 l 22.40048,5.2762 c 2.27523,0.5343 4.66176,-0.12914 6.30471,-1.78992 1.65633,-1.65188 2.32865,-4.02504 1.79438,-6.2958 l -5.27622,-22.4094 c 1.22891,-1.45594 2.43998,-2.92084 3.62435,-4.41686 l 23.00155,0.80591 c 2.31973,0.0934 4.53708,-1.04189 5.83275,-2.98763 1.30013,-1.94128 1.50048,-4.4124 0.52539,-6.53624 l -9.52387,-20.89554 c 0.93059,-1.6875 1.84335,-3.37942 2.72493,-5.09809 l 22.66315,-3.68666 c 2.30639,-0.36958 4.24767,-1.91013 5.13818,-4.06958 0.8905,-2.15056 0.61001,-4.61278 -0.75692,-6.50954 l -13.40646,-18.62476 c 0.57885,-1.83888 1.14432,-3.68666 1.68305,-5.5478 l 21.49218,-8.03674 c 2.18617,-0.81926 3.79796,-2.70266 4.24321,-4.9957 0.46305,-2.28857 -0.30284,-4.64394 -2.01253,-6.23348 L 598.19885,263.5403 c 0.20484,-1.8923 0.39183,-3.79797 0.55655,-5.69918 l 19.56425,-12.11077 c 1.98136,-1.21998 3.18798,-3.38834 3.18798,-5.72145 0,-2.3331 -1.20216,-4.50146 -3.18353,-5.7259 z M 487.38087,396.58067 c -7.47129,-1.61182 -12.22209,-8.97623 -10.6192,-16.46977 1.59845,-7.48462 8.95841,-12.2488 16.42524,-10.63698 7.47128,1.59845 12.23097,8.9762 10.6281,16.4564 -1.60291,7.48016 -8.96731,12.2488 -16.43414,10.65035 z m -6.64758,-44.96124 c -6.81675,-1.46043 -13.5222,2.8763 -14.98262,9.70643 l -6.94588,32.41411 c -21.43428,9.72868 -45.23728,15.13401 -70.30479,15.13401 -25.64189,0 -49.96138,-5.67248 -71.77857,-15.81524 L 309.78,360.64463 c -1.46041,-6.82122 -8.16586,-11.16686 -14.97817,-9.70197 l -28.61614,6.14444 c -5.31182,-5.46767 -10.25408,-11.29153 -14.79562,-17.4404 h 139.23822 c 1.57618,0 2.62697,-0.28515 2.62697,-1.71867 V 288.6746 c 0,-1.4337 -1.05079,-1.71866 -2.62697,-1.71866 h -40.72246 v -31.22085 h 44.04401 c 4.0206,0 21.49662,1.14874 27.08449,23.48688 1.74983,6.87019 5.59232,29.21723 8.21929,36.37237 2.61807,8.02339 13.27733,24.05236 24.63562,24.05236 h 69.38313 c 0.78808,0 1.62962,-0.0892 2.51567,-0.24942 -4.81315,6.54069 -10.0938,12.72968 -15.77962,18.51346 z m -192.57902,44.28446 c -7.47128,1.61179 -14.82679,-3.15235 -16.43414,-10.63701 -1.59844,-7.49796 3.15236,-14.85794 10.62364,-16.46973 7.47127,-1.59845 14.83124,3.16569 16.43413,10.65035 1.59845,7.48017 -3.15681,14.85349 -10.62363,16.45639 z M 235.3344,181.71692 c 3.09893,6.99486 -0.0534,15.1919 -7.03939,18.28638 -6.98595,3.10338 -15.16072,-0.0534 -18.25965,-7.05275 -3.09894,-6.99931 0.0534,-15.18298 7.03938,-18.28637 6.99041,-3.09893 15.16072,0.0534 18.25966,7.05274 z m -16.23378,38.48286 29.80941,-13.24615 c 6.36706,-2.82733 9.24337,-10.2897 6.41604,-16.67012 l -6.13998,-13.88286 h 24.14584 v 108.83663 h -48.71467 c -4.22541,-14.8535 -6.49173,-30.53071 -6.49173,-46.73332 0,-6.18451 0.33394,-12.29777 0.97509,-18.30418 z M 349.91473,209.62957 V 177.5494 h 57.49944 c 2.96981,0 20.97122,3.43286 20.97122,16.89274 0,11.17574 -13.80717,15.18298 -25.16101,15.18298 h -53.30965 z m 208.96419,28.87439 c 0,4.25658 -0.15601,8.46864 -0.4675,12.64952 h -17.48049 c -1.74981,0 -2.4533,1.14874 -2.4533,2.86295 v 8.02784 c 0,18.89636 -10.65481,23.00601 -19.99169,24.05234 -8.8916,1.00181 -18.74942,-3.72228 -19.96496,-9.16322 -5.24502,-29.50219 -13.98527,-35.80246 -27.78797,-46.68879 17.12871,-10.87743 34.95202,-26.9242 34.95202,-48.403 0,-23.19302 -15.89983,-37.80163 -26.73718,-44.96568 C 463.7426,126.85336 446.90774,124.84529 442.3662,124.84529 H 261.58181 c 24.51541,-27.360539 57.73988,-46.742223 95.31888,-53.794965 l 21.30961,22.355944 c 4.81759,5.04467 12.79645,5.231676 17.83666,0.409629 l 23.84308,-22.805644 c 49.96137,9.301246 92.26001,40.401876 116.6374,83.070076 l -16.32283,36.8666 c -2.81841,6.38042 0.058,13.84279 6.42047,16.67012 l 31.42568,13.95855 c 0.54321,5.57897 0.82816,11.21582 0.82816,16.92836 z M 378.2192,52.033748 c 5.52109,-5.289557 14.27913,-5.08029 19.56423,0.449699 5.2762,5.543349 5.07584,14.310299 -0.4586,19.595402 -5.52109,5.289557 -14.27913,5.084744 -19.56424,-0.454154 -5.27174,-5.53444 -5.07138,-14.30139 0.45861,-19.590947 z M 540.20073,182.38925 c 3.09447,-6.99486 11.26925,-10.15167 18.2552,-7.04829 6.98598,3.09893 10.13833,11.29151 7.0394,18.28637 -3.09448,6.99931 -11.26925,10.15613 -18.25965,7.05274 -6.97707,-3.09893 -10.12943,-11.28705 -7.03495,-18.29082 z"
         inkscape:connector-curvature="0"
         style="stroke-width:4.45248842" /></clipPath></defs><sodipodi:namedview
     pagecolor="#ffffff"
     bordercolor="#666666"
     borderopacity="1"
     objecttolerance="10"
     gridtolerance="10"
     guidetolerance="10"
     inkscape:pageopacity="0"
     inkscape:pageshadow="2"
     inkscape:window-width="1784"
     inkscape:window-height="1004"
     id="namedview4"
     showgrid="false"
     inkscape:zoom="3.2777778"
     inkscape:cx="70.900359"
     inkscape:cy="71.795213"
     inkscape:window-x="136"
     inkscape:window-y="0"
     inkscape:window-maximized="0"
     inkscape:current-layer="Layer_1" /><g
     id="g4156"
     transform="matrix(0.22459351,0,0,0.22459351,-15.254579,18.097557)"
     clip-path="url(#clipPath50)"><rect
       id="rect4138"
       height="480"
       width="777"
       x="0"
       y="0"
       style="fill:#750787" /><rect
       id="rect4140"
       height="400"
       width="777"
       x="0"
       y="0"
       style="fill:#004dff" /><rect
       id="rect4142"
       height="320"
       width="777"
       x="0"
       y="0"
       style="fill:#008026" /><rect
       id="rect4144"
       height="240"
       width="777"
       x="0"
       y="0"
       style="fill:#ffed00" /><rect
       id="rect4146"
       height="160"
       width="777"
       x="0"
       y="0"
       style="fill:#ff8c00" /><rect
       id="rect4148"
       height="80"
       width="777"
       x="0"
       y="0"
       style="fill:#e40303" /></g></svg>