<?xml version="1.0" encoding="UTF-8" standalone="no"?>
<svg
   xmlns:dc="http://purl.org/dc/elements/1.1/"
   xmlns:cc="http://creativecommons.org/ns#"
   xmlns:rdf="http://www.w3.org/1999/02/22-rdf-syntax-ns#"
   xmlns:svg="http://www.w3.org/2000/svg"
   xmlns="http://www.w3.org/2000/svg"
   xmlns:sodipodi="http://sodipodi.sourceforge.net/DTD/sodipodi-0.dtd"
   xmlns:inkscape="http://www.inkscape.org/namespaces/inkscape"
   viewBox="0 0 3810 3810"
   version="1.1"
   id="svg24"
   sodipodi:docname="rust_pride.svg"
   width="3810"
   height="3810"
   inkscape:version="1.0.2-2 (e86c870879, 2021-01-15)">
  <metadata
     id="metadata30">
    <rdf:RDF>
      <cc:Work
         rdf:about="">
        <dc:format>image/svg+xml</dc:format>
        <dc:type
           rdf:resource="http://purl.org/dc/dcmitype/StillImage" />
        <dc:title />
      </cc:Work>
    </rdf:RDF>
  </metadata>
  <defs
     id="defs28">
    <marker
       style="overflow:visible;"
       id="Arrow1Lend"
       refX="0.0"
       refY="0.0"
       orient="auto"
       inkscape:stockid="Arrow1Lend"
       inkscape:isstock="true">
      <path
         transform="scale(0.8) rotate(180) translate(12.5,0)"
         style="fill-rule:evenodd;stroke:#ffffff;stroke-width:1pt;stroke-opacity:1;fill:#ffffff;fill-opacity:1"
         d="M 0.0,0.0 L 5.0,-5.0 L -12.5,0.0 L 5.0,5.0 L 0.0,0.0 z "
         id="path878" />
    </marker>
    <clipPath
       clipPathUnits="userSpaceOnUse"
       id="clipPath45">
      <rect
         style="fill:#0000ff;fill-rule:evenodd"
         id="rect47"
         width="3810"
         height="3810"
         x="0"
         y="0" />
    </clipPath>
    <clipPath
       clipPathUnits="userSpaceOnUse"
       id="clipPath49">
      <rect
         style="fill:#0000ff;fill-rule:evenodd"
         id="rect51"
         width="3810"
         height="3810"
         x="0"
         y="0" />
    </clipPath>
    <clipPath
       clipPathUnits="userSpaceOnUse"
       id="clipPath53">
      <rect
         style="fill:#0000ff;fill-rule:evenodd"
         id="rect55"
         width="3810"
         height="3810"
         x="0"
         y="0" />
    </clipPath>
    <clipPath
       clipPathUnits="userSpaceOnUse"
       id="clipPath57">
      <rect
         style="fill:#0000ff;fill-rule:evenodd"
         id="rect59"
         width="3810"
         height="3810"
         x="0"
         y="0" />
    </clipPath>
    <clipPath
       clipPathUnits="userSpaceOnUse"
       id="clipPath61">
      <rect
         style="fill:#0000ff;fill-rule:evenodd"
         id="rect63"
         width="3810"
         height="3810"
         x="0"
         y="0" />
    </clipPath>
    <clipPath
       clipPathUnits="userSpaceOnUse"
       id="clipPath65">
      <rect
         style="fill:#0000ff;fill-rule:evenodd"
         id="rect67"
         width="3810"
         height="3810"
         x="0"
         y="0" />
    </clipPath>
    <clipPath
       clipPathUnits="userSpaceOnUse"
       id="clipPath69">
      <rect
         style="fill:#0000ff;fill-rule:evenodd"
         id="rect71"
         width="3810"
         height="3810"
         x="0"
         y="0" />
    </clipPath>
    <clipPath
       clipPathUnits="userSpaceOnUse"
       id="clipPath73">
      <rect
         style="fill:#0000ff;fill-rule:evenodd"
         id="rect75"
         width="3810"
         height="3810"
         x="0"
         y="0" />
    </clipPath>
    <clipPath
       clipPathUnits="userSpaceOnUse"
       id="clipPath77">
      <rect
         style="fill:#0000ff;fill-rule:evenodd"
         id="rect79"
         width="3810"
         height="3810"
         x="0"
         y="0" />
    </clipPath>
    <clipPath
       clipPathUnits="userSpaceOnUse"
       id="clipPath81">
      <rect
         style="fill:#0000ff;fill-rule:evenodd"
         id="rect83"
         width="3810"
         height="3810"
         x="0"
         y="0" />
    </clipPath>
    <clipPath
       clipPathUnits="userSpaceOnUse"
       id="clipPath85">
      <rect
         style="fill:#0000ff;fill-rule:evenodd"
         id="rect87"
         width="3810"
         height="3810"
         x="0"
         y="0" />
    </clipPath>
  </defs>
  <sodipodi:namedview
     pagecolor="#ffffff"
     bordercolor="#666666"
     borderopacity="1"
     objecttolerance="10"
     gridtolerance="10"
     guidetolerance="10"
     inkscape:pageopacity="0"
     inkscape:pageshadow="2"
     inkscape:window-width="3440"
     inkscape:window-height="1377"
     id="namedview26"
     showgrid="false"
     fit-margin-top="0"
     fit-margin-left="0"
     fit-margin-right="0"
     fit-margin-bottom="0"
     inkscape:zoom="0.104"
     inkscape:cx="1665.0557"
     inkscape:cy="1959.2192"
     inkscape:window-x="-8"
     inkscape:window-y="-8"
     inkscape:window-maximized="1"
     inkscape:current-layer="layer3"
     inkscape:document-rotation="0" />
  <g
     id="g109" />
  <g
     inkscape:groupmode="layer"
     id="layer3"
     inkscape:label="Background"
     style="display:inline"
     sodipodi:insensitive="true">
    <g
       id="g3193">
      <rect
         fill="#750787"
         width="6000"
         height="3810"
         id="rect2"
         clip-path="url(#clipPath85)"
         x="0"
         y="0" />
      <rect
         fill="#004dff"
         width="6000"
         height="3175"
         id="rect4"
         clip-path="url(#clipPath81)"
         x="0"
         y="0"
         style="fill:#081a9a;fill-opacity:1" />
      <rect
         fill="#008026"
         width="6000"
         height="2540"
         id="rect6"
         clip-path="url(#clipPath77)"
         x="0"
         y="0"
         style="fill:#0abf02;fill-opacity:1" />
      <rect
         fill="#ffed00"
         width="6000"
         height="1905"
         id="rect8"
         clip-path="url(#clipPath73)"
         x="0"
         y="0" />
      <rect
         fill="#ff8c00"
         width="6000"
         height="1270"
         id="rect10"
         clip-path="url(#clipPath69)"
         x="0"
         y="0" />
      <rect
         fill="#e40303"
         width="6000"
         height="635"
         id="rect12"
         clip-path="url(#clipPath65)"
         x="0"
         y="0"
         style="stroke:#828282;stroke-opacity:1" />
      <polygon
         points="-1,960 950,1905 -1,2850 "
         fill="#ffffff"
         id="polygon14"
         clip-path="url(#clipPath61)" />
      <polygon
         points="-1,960 -1,480 1420,1905 -1,3330 -1,2850 950,1905 "
         fill="#ffafc8"
         id="polygon16"
         clip-path="url(#clipPath57)" />
      <polygon
         points="-1,480 -1,0 1912,1905 -1,3810 -1,3330 1420,1905 "
         fill="#74d7ee"
         id="polygon18"
         clip-path="url(#clipPath53)" />
      <polygon
         points="-1,0 1912,1905 -1,3810 480,3810 2384,1905 480,0 "
         fill="#613915"
         id="polygon20"
         clip-path="url(#clipPath49)" />
      <polygon
         points="480,0 960,0 2864,1905 960,3810 480,3810 2384,1905 "
         fill="#000000"
         id="polygon22"
         clip-path="url(#clipPath45)" />
    </g>
  </g>
  <g
     inkscape:groupmode="layer"
     id="layer2"
     inkscape:label="backing"
     sodipodi:insensitive="true"
     style="mix-blend-mode:normal">
    <path
       id="path2932"
       style="display:inline;mix-blend-mode:normal;fill:#ffffff;fill-opacity:1;stroke:#ffffff;stroke-width:28;stroke-miterlimit:4;stroke-dasharray:none;stroke-opacity:1"
       d="m 1901.9646,437.47482 c -16.8852,0.70881 -33.7588,7.97888 -44.8092,20.95769 -5.893,7.21303 -10.2174,15.51427 -15.3735,23.23765 -20.3912,32.33033 -40.7823,64.66048 -61.1737,96.99077 -5.7155,0.54669 -11.4313,1.09336 -17.1472,1.64005 -31.771,-33.41197 -63.4576,-66.90141 -95.3565,-100.187 -13.024,-12.20128 -31.7072,-17.45797 -49.2801,-15.3403 -17.9638,1.93825 -35.3319,11.3606 -45.6814,26.34018 -5.7358,8.34104 -8.3973,18.21793 -12.1622,27.48471 -13.8524,36.35116 -27.7051,72.70245 -41.5575,109.05359 -5.6066,1.66639 -11.2132,3.33294 -16.8198,4.99948 -37.83,-26.69731 -75.5958,-53.4883 -113.5404,-80.01959 -15.3819,-9.45508 -34.997,-10.85896 -51.9539,-5.0821 -17.3185,5.65747 -32.5031,18.67697 -39.3038,35.75256 -3.5365,8.92898 -4.1688,18.68882 -5.9265,27.94624 -6.3707,38.31621 -12.7415,76.63225 -19.1122,114.94845 -5.0918,2.67948 -10.1835,5.35879 -15.2751,8.03795 -42.3693,-18.93822 -84.6991,-37.96703 -127.1411,-56.7386 -17.0411,-6.46433 -36.7751,-4.07636 -52.4199,4.99495 -15.8547,8.90544 -28.1283,24.68408 -31.3275,42.74608 -1.6448,9.63218 -0.2887,19.40588 -0.1855,29.09619 1.3727,38.64731 2.7456,77.29445 4.1181,115.94175 -4.3383,3.50363 -8.677,7.00726 -13.0154,10.51088 -45.35568,-10.48407 -90.6907,-21.06463 -136.08961,-31.35493 -18.12047,-3.12562 -37.23266,3.07713 -50.89612,15.17754 -13.63852,11.7737 -22.44621,29.49573 -22.05324,47.6614 0.22728,9.41923 3.27619,18.41741 5.28756,27.48076 9.09265,38.05618 18.25982,76.09503 27.38115,114.14453 -3.5217,4.2028 -7.04326,8.4057 -10.56497,12.6086 -46.58205,-1.5829 -93.16317,-3.2582 -139.74991,-4.6563 -18.33901,0.477 -35.8308,10.2523 -46.86218,24.7416 -11.06005,14.1957 -16.20981,33.2883 -12.21451,50.9947 2.26497,9.9123 7.57746,18.7055 11.56745,27.9606 16.16194,34.7989 32.32374,69.5979 48.48555,104.3967 -2.66015,4.8712 -5.3206,9.7428 -7.98091,14.6141 -45.8611,7.3389 -91.7381,14.5869 -137.57504,22.0721 -18.30658,3.9858 -33.90534,17.4177 -41.692,34.3119 -7.86352,16.4305 -8.66023,36.5017 -0.60967,53.0194 4.19436,8.4616 10.54784,15.5499 15.88886,23.2702 22.8367,31.125 45.67341,62.2497 68.51012,93.3746 -1.6349,5.2887 -3.26949,10.5775 -4.90439,15.8663 -43.47282,15.9656 -86.97977,31.842 -130.39485,47.9608 -16.88057,7.2756 -29.42369,23.0561 -33.92482,40.7418 -4.74336,17.6296 -1.79655,37.5131 9.09484,52.3404 6.06711,8.0922 14.26314,14.1654 21.48473,21.1445 28.43722,26.026 56.87433,52.0517 85.31144,78.0775 -0.52968,5.3429 -1.05937,10.6858 -1.58907,16.0286 -39.58305,24.0591 -79.21579,48.0388 -118.70486,72.249 -15.14501,10.465 -24.30048,28.4769 -25.13595,46.7305 -1.0877,18.2037 5.77846,37.0816 19.42387,49.3987 6.1866,5.5542 13.59572,9.4343 20.65612,13.7259 2.41805,1.512 5.12762,3.1837 7.68146,4.7192 32.02647,19.4539 64.05289,38.9079 96.07936,58.3616 0.5297,5.345 1.05939,10.6901 1.58907,16.035 -33.96379,31.1106 -67.99485,62.1444 -101.85171,93.3676 -12.78615,13.1077 -18.27667,32.4441 -15.59844,50.421 2.46685,18.2062 12.95202,35.4938 28.80562,45.0441 8.60631,5.0821 18.36396,7.5911 27.58989,11.2579 36.49449,13.3895 72.9889,26.7787 109.4833,40.168 1.6349,5.2887 3.26949,10.5775 4.90439,15.8664 -27.01951,36.8576 -54.10514,73.6668 -80.99589,110.6169 -9.89483,15.0986 -11.59925,34.8075 -5.76096,51.742 5.81116,17.6256 19.45856,32.8432 36.99088,39.335 9.45135,3.4586 19.59435,4.0067 29.41139,5.8577 38.61082,6.1656 77.22149,12.3311 115.83231,18.4966 2.66031,4.8776 5.32076,9.7555 7.98091,14.6331 -19.23146,41.4368 -38.5569,82.8305 -57.62747,124.3402 -6.51513,16.5302 -4.32389,35.8211 4.47166,51.0955 9.11713,16.3444 25.52615,28.8082 44.123,31.9046 9.97355,1.5822 20.06511,0.1752 30.08808,0.1 39.22126,-1.3498 78.44283,-2.6997 117.6644,-4.0496 3.53949,4.2208 7.07911,8.4416 10.6189,12.6626 -10.6415,44.377 -21.36968,88.7347 -31.83614,133.1525 -3.15102,17.4834 2.77176,35.9678 14.38723,49.2229 12.23385,14.371 30.94153,23.4316 49.93852,22.7892 8.90748,-0.2948 17.72017,-3.0877 26.1447,-4.9279 17.4717,-3.9432 34.90661,-8.0552 52.36407,-12.0635 21.80028,-5.0393 43.60018,-10.0787 65.40048,-15.1179 4.3291,3.4866 8.6578,6.9734 12.9868,10.46 -1.6051,45.7049 -3.3081,91.4089 -4.7453,137.1181 0.4772,17.6224 9.9065,34.3758 23.7577,45.043 14.6716,11.6389 34.5505,16.9949 52.9708,12.9255 9.0268,-2.0024 17.2031,-6.5262 25.5608,-10.1379 1.8216,-0.7542 3.9786,-1.7458 5.9227,-2.6096 34.4964,-15.4245 68.9927,-30.849 103.4892,-46.2734 5.0916,2.6781 10.1833,5.3565 15.2751,8.0349 7.4815,44.9258 14.8689,89.8693 22.5244,134.765 3.9127,17.2415 16.4211,31.8928 32.0968,39.7471 16.7945,8.727 37.5634,10.1563 55.0226,2.5035 9.2313,-4.1777 16.9196,-10.9131 25.288,-16.4926 31.6158,-22.3556 63.2317,-44.7111 94.8478,-67.0667 5.6173,1.6762 11.2344,3.3522 16.8515,5.0284 16.2803,42.6943 32.4653,85.4263 48.9395,128.0446 7.2822,16.0164 22.3262,27.8327 39.1315,32.5288 17.5774,5.151 37.5056,2.9945 52.9578,-7.0968 8.869,-5.8091 15.3495,-14.3556 22.7878,-21.7555 26.733,-28.1212 53.466,-56.2424 80.1989,-84.3637 5.7201,0.5594 11.4401,1.119 17.1602,1.6783 24.5169,38.8367 48.936,77.7352 73.6085,116.4718 10.2354,14.2835 27.2301,22.9683 44.5946,24.4053 18.0605,1.732 37.0508,-3.9769 50.3131,-16.5596 7.7162,-7.2709 12.4078,-16.9185 18.2003,-25.6176 20.7512,-32.9 41.5026,-65.8 62.254,-98.6999 5.7199,-0.5593 11.4399,-1.1189 17.1598,-1.6783 31.74,33.3815 63.3966,66.8398 95.2642,100.095 12.9805,12.2086 31.6318,17.497 49.182,15.3947 17.9004,-1.9187 35.2265,-11.2409 45.6187,-26.1104 6.1854,-8.8588 8.9051,-19.4995 12.9341,-29.2339 13.6563,-35.8354 27.3126,-71.6708 40.9687,-107.5061 5.6163,-1.676 11.2325,-3.3522 16.8487,-5.0281 37.7208,26.6475 75.3764,53.3837 113.1985,79.8829 15.3411,9.5357 34.9569,11.0316 51.949,5.3388 17.3458,-5.575 32.5904,-18.5244 39.4807,-35.5639 3.6636,-9.1521 4.3125,-19.0931 6.103,-28.6978 6.4007,-38.1294 12.6964,-76.2765 19.0515,-114.4133 5.0917,-2.6784 10.1834,-5.3568 15.2752,-8.0349 42.3743,18.9324 84.7112,37.9509 127.157,56.7195 17.1244,6.4876 36.9618,4.0511 52.6483,-5.1196 15.5241,-8.8171 27.5672,-24.2237 30.9402,-41.9048 1.8512,-9.8469 0.4359,-19.8764 0.3282,-29.7998 -1.3736,-38.6537 -2.7474,-77.3075 -4.1212,-115.961 4.3238,-3.4866 8.6473,-6.9734 12.9708,-10.46 45.4195,10.4852 90.8187,21.0624 136.2775,31.3704 18.2025,3.0875 37.3762,-3.208 51.0281,-15.4375 13.532,-11.8287 22.2159,-29.5571 21.713,-47.6768 -0.276,-9.6625 -3.5395,-18.8665 -5.5386,-28.2405 -9.0397,-37.6966 -18.0791,-75.3934 -27.119,-113.0901 3.5239,-4.2145 7.0476,-8.4289 10.5711,-12.6434 46.6975,1.598 93.3939,3.2968 140.0965,4.701 18.3601,-0.4769 35.8471,-10.3691 46.7681,-24.9622 11.0062,-14.3054 16.0364,-33.5187 11.8459,-51.2393 -1.9288,-8.1135 -6.0389,-15.6966 -9.474,-23.0685 -7.7566,-16.9666 -15.7009,-33.8486 -23.5316,-50.7817 -8.9855,-19.3463 -17.9711,-38.6926 -26.9565,-58.039 2.6571,-4.8777 5.3143,-9.7555 7.9713,-14.6332 45.8887,-7.3423 91.7926,-14.5979 137.6577,-22.0818 18.3471,-4.0025 33.9804,-17.4735 41.7591,-34.4215 7.6393,-16.0982 8.5107,-35.6427 0.9237,-51.926 -4.2626,-9.0316 -11.037,-16.4958 -16.6716,-24.6527 -22.7304,-30.9886 -45.4607,-61.9773 -68.1909,-92.9662 1.6346,-5.2888 3.2693,-10.5775 4.9041,-15.8663 43.4566,-15.9671 86.9497,-31.8399 130.3503,-47.9545 17.1205,-7.3814 29.7922,-23.485 34.1637,-41.4732 4.4404,-17.2837 1.5299,-36.6594 -9.0345,-51.2126 -5.9696,-8.1567 -14.1821,-14.2177 -21.3919,-21.1893 -28.5541,-26.1408 -57.1081,-52.2818 -85.6623,-78.4227 0.5311,-5.347 1.0619,-10.6942 1.5926,-16.0412 39.5792,-24.0573 79.2058,-48.0381 118.6954,-72.2394 15.0887,-10.3957 24.2368,-28.2937 25.1464,-46.4577 1.1561,-18.198 -5.6347,-37.0851 -19.1921,-49.4877 -7.4273,-6.7274 -16.5774,-11.0324 -24.9249,-16.4438 -33.2322,-20.1854 -66.4641,-40.371 -99.6962,-60.5565 -0.5298,-5.344 -1.0595,-10.6877 -1.5891,-16.0316 34.0036,-31.1497 68.0842,-62.2144 101.9687,-93.4921 12.8469,-13.2704 18.2757,-32.8296 15.4057,-50.9387 -2.63,-18.2011 -13.3201,-35.3998 -29.3117,-44.7548 -8.2401,-4.7255 -17.5001,-7.1414 -26.2777,-10.6266 -36.7378,-13.4821 -73.4757,-26.9643 -110.2137,-40.4464 -1.6348,-5.2899 -3.2695,-10.5798 -4.9044,-15.8697 27.0546,-36.8909 54.1708,-73.7367 81.0941,-110.7222 9.8437,-15.0865 11.519,-34.7525 5.6657,-51.6429 -5.9089,-17.9018 -19.939,-33.2722 -37.8304,-39.6237 -9.2003,-3.2007 -19.0061,-3.7543 -28.5162,-5.5567 -38.6261,-6.1677 -77.2522,-12.3351 -115.8783,-18.5026 -2.6562,-4.8661 -5.3121,-9.7321 -7.9682,-14.5983 19.2211,-41.4406 38.527,-82.8435 57.5957,-124.3527 6.6889,-16.8805 4.3383,-36.6553 -4.9103,-52.1176 -9.338,-16.1431 -25.9172,-28.2872 -44.5015,-31.0274 -9.7556,-1.3767 -19.602,-0.047 -29.3937,0.022 -39.1942,1.3411 -78.3885,2.682 -117.583,4.023 -3.5277,-4.2018 -7.0558,-8.4036 -10.5838,-12.6055 10.6649,-44.4338 21.432,-88.84489 31.9024,-133.32411 3.1046,-17.50644 -2.8816,-35.98357 -14.5206,-49.2319 -12.32,-14.43088 -31.192,-23.47178 -50.2877,-22.68286 -8.1706,0.36835 -16.2637,2.76864 -24.0503,4.56051 -16.5323,3.70191 -33.0168,7.6205 -49.5302,11.40815 -23.2724,5.38591 -46.5447,10.77183 -69.8173,16.1579 -4.3383,-3.50051 -8.6769,-7.00101 -13.0154,-10.50138 1.6229,-45.67496 3.3468,-91.34901 4.7744,-137.02912 -0.4558,-17.63474 -9.8752,-34.41742 -23.7356,-45.09384 -14.7116,-11.67783 -34.6595,-17.03911 -53.1299,-12.94016 -9.8465,2.23583 -18.6668,7.35377 -27.9259,11.18351 -35.6356,15.94324 -71.2714,31.88665 -106.9068,47.82974 -5.0918,-2.67917 -10.1836,-5.35848 -15.2754,-8.03795 -7.4856,-44.94232 -14.8793,-89.9018 -22.5278,-134.8159 -3.8647,-17.08229 -16.1979,-31.61058 -31.6601,-39.51354 -16.3711,-8.62518 -36.5735,-10.3893 -53.8445,-3.38018 -9.323,3.75725 -16.982,10.44713 -25.2529,15.97926 -32.1933,22.72712 -64.3866,45.4544 -96.5799,68.18168 -5.5888,-1.66342 -11.1772,-3.3267 -16.7659,-4.98997 -16.2889,-42.70212 -32.4688,-85.44729 -48.9427,-128.07646 -7.2647,-16.04867 -22.3378,-27.88721 -39.1695,-32.56401 -17.8896,-5.24235 -38.2051,-2.8472 -53.77,7.65947 -8.5405,5.8651 -14.8926,14.18286 -22.1637,21.43521 -26.6534,28.06175 -53.3067,56.12334 -79.96,84.18494 -5.7074,-0.54543 -11.4148,-1.09117 -17.1219,-1.63677 -24.517,-38.8501 -48.947,-77.75586 -73.6181,-116.50687 -10.3602,-14.45955 -27.6302,-23.20614 -45.2244,-24.49093 -2.913,-0.24209 -5.8447,-0.29089 -8.7654,-0.18831 z" />
  </g>
  <g
     inkscape:groupmode="layer"
     id="layer1"
     inkscape:label="outline"
     style="display:inline;mix-blend-mode:normal;"
     sodipodi:insensitive="true">
    <path
       d="m 1819.2342,857.20618 a 81.48725,81.48725 0 0 1 162.9745,0 81.48725,81.48725 0 0 1 -162.9745,0 M 847.12993,1594.9956 a 81.487207,81.487207 0 0 1 162.97437,0 81.487207,81.487207 0 0 1 -162.97437,0 m 1944.18217,3.8016 a 81.4873,81.4873 0 0 1 162.9746,0 81.4873,81.4873 0 0 1 -162.9746,0 M 1083.018,1710.4359 c 37.4926,-16.649 54.4298,-60.5912 37.7809,-98.1623 l -36.1552,-81.7495 h 142.183 v 640.8858 H 939.96963 A 1003.2519,1003.2519 0 0 1 907.48504,1788.436 Z m 594.7673,15.7572 v -188.9047 h 338.5859 c 17.488,0 123.4895,20.2147 123.4895,99.4733 0,65.8084 -81.3038,89.4051 -148.1609,89.4051 z m -462.259,1017.0953 a 81.48725,81.48725 0 0 1 162.9745,0 81.48725,81.48725 0 0 1 -162.9745,0 m 1207.3895,3.8015 a 81.487207,81.487207 0 0 1 162.9744,0 81.487207,81.487207 0 0 1 -162.9744,0 m 25.196,-184.7881 c -40.1406,-8.5998 -79.6256,16.9371 -88.2254,57.1564 l -40.9009,190.8708 a 1003.2519,1003.2519 0 0 1 -836.6593,-4.0113 l -40.8746,-190.8709 c -8.5997,-40.1668 -48.0847,-65.7561 -88.1993,-57.1301 l -168.5064,36.1814 a 1003.2519,1003.2519 0 0 1 -87.1241,-102.6979 h 819.9056 c 9.2815,0 15.469,-1.6781 15.469,-10.1203 v -290.0292 c 0,-8.4426 -6.1875,-10.1205 -15.469,-10.1205 H 1677.7328 V 1997.686 h 259.3536 c 23.6755,0 126.5831,6.7642 159.4874,138.3026 10.3039,40.4553 32.9305,172.0459 48.3993,214.179 15.4166,47.2461 78.1836,141.6326 145.0672,141.6326 h 423.3243 a 1003.2519,1003.2519 0 0 1 -92.9185,107.5484 z m 455.2848,-765.7645 a 1003.2519,1003.2519 0 0 1 2.1235,174.1696 h -102.9338 c -10.304,0 -14.4465,6.7646 -14.4465,16.8587 v 47.2719 c 0,111.2714 -62.7409,135.4712 -117.721,141.6325 -52.3584,5.8991 -110.4063,-21.9187 -117.564,-53.9577 -30.8855,-173.7238 -82.3525,-210.8232 -163.6299,-274.9275 100.8629,-64.0518 205.8155,-158.5433 205.8155,-285.0215 0,-136.5724 -93.6263,-222.5954 -157.4422,-264.781 -89.5362,-59.0179 -188.6684,-70.8425 -215.4116,-70.8425 H 1157.636 a 1003.2519,1003.2519 0 0 1 561.2862,-316.7723 l 125.4818,131.6434 c 28.3683,29.7056 75.3521,30.8068 105.0314,2.4121 l 140.4003,-134.29149 a 1003.2519,1003.2519 0 0 1 686.8203,489.15919 l -96.117,217.0896 c -16.5964,37.5711 0.3409,81.5131 37.8071,98.162 z m 239.7157,3.5132 -3.2772,-33.5596 99.0012,-92.3416 c 20.1359,-18.7726 12.611,-56.5536 -13.1356,-66.1493 l -126.5568,-47.3246 -9.9105,-32.6683 78.9438,-109.6458 c 16.0983,-22.2858 1.3112,-57.8644 -25.7991,-62.3214 l -133.4521,-21.709 -16.0457,-29.9677 56.0814,-123.0959 c 11.4838,-25.065 -9.8583,-57.1302 -37.4402,-56.0816 l -135.4447,4.7193 -21.3944,-25.9563 31.1214,-131.93163 c 6.2926,-26.79542 -20.8962,-54.01035 -47.6914,-47.71775 l -131.9055,31.0953 -26.0088,-21.39442 4.7456,-135.44502 c 1.0487,-27.42439 -31.0427,-48.84506 -56.0551,-37.4662 l -123.0699,56.10754 -29.9677,-16.07179 -21.7613,-133.47864 c -4.4048,-27.05756 -40.0097,-41.84474 -62.2952,-25.79901 l -109.7247,78.94402 -32.6157,-9.88437 -47.3245,-126.58313 c -9.5961,-25.79901 -47.4031,-33.21894 -66.1231,-13.1879 l -92.3416,99.07984 -33.5598,-3.27722 -71.3144,-115.23061 c -14.4202,-23.33439 -53.0402,-23.33439 -67.4077,0 l -71.3145,115.23061 -33.5859,3.27722 -92.3679,-99.07984 c -18.7199,-20.03104 -56.5273,-12.61111 -66.1232,13.1879 l -47.3244,126.58313 -32.6421,9.88437 -109.6982,-78.94402 c -22.2858,-16.09826 -57.9166,-1.25855 -62.3215,25.79901 l -21.7614,133.47864 -29.9677,16.07179 -123.0699,-56.10754 c -25.0123,-11.43137 -57.1036,10.04181 -56.0551,37.4662 l 4.7194,135.44502 -26.0088,21.39442 -131.90543,-31.0953 c -26.79532,-6.24003 -54.01019,20.92233 -47.71765,47.71775 l 31.06888,131.93163 -21.34187,25.9563 -135.44491,-4.7193 c -27.31962,-0.7864 -48.84496,31.0166 -37.46632,56.0816 l 56.10776,123.0959 -16.07178,29.9677 -133.45247,21.709 c -27.10992,4.4046 -41.79225,40.0356 -25.79901,62.3214 l 78.94403,109.6458 -9.91062,32.6683 L 584.28934,1608 c -25.69404,9.5957 -33.21881,47.3767 -13.13549,66.1493 l 99.0275,92.3416 -3.27746,33.5596 -115.20421,71.3144 c -23.33442,14.4205 -23.33442,53.0401 0,67.4079 l 115.20421,71.3143 3.27746,33.5598 -99.0275,92.3679 c -20.08332,18.72 -12.55855,56.4747 13.13549,66.1231 l 126.58307,47.3245 9.91062,32.6683 -78.94403,109.6721 c -16.04561,22.3381 -1.28478,57.943 25.82526,62.2952 l 133.42622,21.709 16.07178,30.02 -56.10776,123.0436 c -11.43126,25.0126 10.1467,57.1827 37.46632,56.0814 l 135.39266,-4.7456 21.39412,26.0088 -31.06888,131.9578 c -6.29254,26.743 20.92233,53.9053 47.71765,47.6129 l 131.90543,-31.0688 26.0088,21.3418 -4.7194,135.4711 c -1.0485,27.4248 31.0428,48.8714 56.0551,37.44 l 123.0699,-56.0813 29.9677,16.0717 21.7614,133.3999 c 4.4049,27.1623 40.0357,41.8448 62.3215,25.8516 l 109.6459,-78.9966 32.6683,9.937 47.3244,126.5306 c 9.5959,25.6942 47.403,33.2714 66.123,13.1356 l 92.3681,-99.0274 33.5857,3.3559 71.3144,115.2042 c 14.3679,23.2297 52.9877,23.282 67.4079,0 l 71.3143,-115.2042 33.5598,-3.3559 92.3417,99.0274 c 18.72,20.1358 56.5271,12.5586 66.1232,-13.1356 l 47.3244,-126.5306 32.6682,-9.937 109.6722,78.9966 c 22.2857,15.9932 57.8903,1.2585 62.295,-25.8516 l 21.7614,-133.3999 29.9678,-16.0717 123.0698,56.0813 c 25.0126,11.4314 57.0514,-9.963 56.0552,-37.44 l -4.7194,-135.4711 25.9827,-21.3418 131.9054,31.0688 c 26.7953,6.2924 53.9838,-20.8699 47.6914,-47.6129 l -31.0689,-131.9578 21.3419,-26.0088 135.4449,4.7456 c 27.3197,1.1013 48.9237,-31.0688 37.44,-56.0814 l -56.0813,-123.0436 16.0456,-30.02 133.4522,-21.709 c 27.1623,-4.3522 41.8972,-39.9571 25.7992,-62.2952 l -78.9442,-109.6721 9.9108,-32.6683 126.5568,-47.3245 c 25.7466,-9.6484 33.2712,-47.4031 13.1356,-66.1231 l -99.0013,-92.3679 3.2773,-33.5598 115.2041,-71.3143 c 23.3346,-14.3678 23.361,-52.9874 0,-67.4079 z"
       id="path909"
       style="stroke-width:26.2186" />
  </g>
</svg>
